<?xml version="1.0" encoding="utf-8"?>
<!-- Generator: Adobe Illustrator 24.0.2, SVG Export Plug-In . SVG Version: 6.00 Build 0)  -->
<svg version="1.1" id="Capa_1" xmlns="http://www.w3.org/2000/svg" xmlns:xlink="http://www.w3.org/1999/xlink" x="0px" y="0px"
	 viewBox="0 0 3710 3710" style="enable-background:new 0 0 3710 3710;" xml:space="preserve">
<style type="text/css">
	.st0{fill:#FFFFFF;}
	.st1{fill:#F0F0FC;}
	.st2{fill:#C6A8F5;}
	.st3{fill:#803AE8;}
	.st4{fill:#471298;}
	.st5{fill:#BDD0FB;}
	.st6{fill:#7225E5;}
	.st7{fill:#E3D3FA;}
	.st8{opacity:0.6;}
	.st9{opacity:0.6;fill:#FFFFFF;enable-background:new    ;}
	.st10{fill:url(#SVGID_1_);}
	.st11{fill:url(#SVGID_2_);}
	.st12{fill:url(#SVGID_3_);}
	.st13{fill:url(#SVGID_4_);}
	.st14{fill:url(#SVGID_5_);}
	.st15{fill:url(#SVGID_6_);}
	.st16{fill:url(#SVGID_7_);}
	.st17{opacity:0.75;fill:#FFFFFF;enable-background:new    ;}
	.st18{fill:url(#SVGID_8_);}
	.st19{fill:url(#SVGID_9_);}
	.st20{fill:url(#SVGID_10_);}
	.st21{fill:url(#SVGID_11_);}
	.st22{fill:url(#SVGID_12_);}
	.st23{fill:url(#SVGID_13_);}
	.st24{opacity:0.74;fill:#FFFFFF;enable-background:new    ;}
	.st25{fill:url(#SVGID_14_);}
	.st26{fill:url(#SVGID_15_);}
	.st27{fill:#302F77;}
	.st28{fill:url(#SVGID_16_);}
	.st29{fill:url(#SVGID_17_);}
	.st30{fill:url(#SVGID_18_);}
	.st31{fill:url(#SVGID_19_);}
	.st32{fill:url(#SVGID_20_);}
	.st33{fill:url(#SVGID_21_);}
	.st34{fill:url(#SVGID_22_);}
	.st35{fill:url(#SVGID_23_);}
	.st36{fill:url(#SVGID_24_);}
	.st37{fill:#190636;}
	.st38{fill:url(#SVGID_25_);}
	.st39{fill:#3D0F81;}
	.st40{fill:#330D6C;}
	.st41{fill:url(#SVGID_26_);}
	.st42{fill:url(#SVGID_27_);}
	.st43{opacity:0.5;clip-path:url(#SVGID_29_);fill:#FFFFFF;enable-background:new    ;}
	.st44{clip-path:url(#SVGID_31_);}
	.st45{fill:url(#SVGID_32_);}
	.st46{fill:url(#SVGID_33_);}
	.st47{fill:url(#SVGID_34_);}
	.st48{fill:url(#SVGID_35_);}
	.st49{fill:url(#SVGID_36_);}
	.st50{fill:#7D97F4;}
	.st51{fill:url(#SVGID_37_);}
	.st52{fill:url(#SVGID_38_);}
	.st53{fill:url(#SVGID_39_);}
	.st54{fill:url(#SVGID_40_);}
	.st55{fill:url(#SVGID_41_);}
	.st56{clip-path:url(#SVGID_43_);fill:#7D97F4;}
	.st57{opacity:0.84;}
	.st58{opacity:0.43;fill:#FFFFFF;enable-background:new    ;}
	.st59{fill:#91B3FA;}
	.st60{opacity:0.8;fill:#FFFFFF;enable-background:new    ;}
	.st61{fill:url(#SVGID_44_);}
	.st62{opacity:0.5;fill:#FFFFFF;enable-background:new    ;}
	.st63{fill:url(#SVGID_45_);}
	.st64{fill:url(#SVGID_46_);}
	.st65{fill:url(#SVGID_47_);}
	.st66{fill:url(#SVGID_48_);}
	.st67{fill:url(#SVGID_49_);}
	.st68{fill:url(#SVGID_50_);}
	.st69{fill:url(#SVGID_51_);}
	.st70{fill:url(#SVGID_52_);}
	.st71{fill:url(#SVGID_53_);}
	.st72{fill:url(#SVGID_54_);}
	.st73{fill:url(#SVGID_55_);}
	.st74{fill:url(#SVGID_56_);}
	.st75{fill:url(#SVGID_57_);}
	.st76{fill:url(#SVGID_58_);}
	.st77{fill:url(#SVGID_59_);}
	.st78{fill:url(#SVGID_60_);}
	.st79{fill:url(#SVGID_61_);}
	.st80{fill:url(#SVGID_62_);}
	.st81{fill:url(#SVGID_63_);}
	.st82{fill:url(#SVGID_64_);}
	.st83{fill:url(#SVGID_65_);}
	.st84{fill:url(#SVGID_66_);}
	.st85{fill:url(#SVGID_67_);}
	.st86{fill:url(#SVGID_68_);}
	.st87{fill:url(#SVGID_69_);}
	.st88{fill:url(#SVGID_70_);}
	.st89{fill:url(#SVGID_71_);}
	.st90{fill:url(#SVGID_72_);}
	.st91{fill:url(#SVGID_73_);}
	.st92{fill:url(#SVGID_74_);}
	.st93{fill:url(#SVGID_75_);}
	.st94{fill:url(#SVGID_76_);}
	.st95{fill:url(#SVGID_77_);}
	.st96{fill:url(#SVGID_78_);}
	.st97{fill:url(#SVGID_79_);}
	.st98{fill:url(#SVGID_80_);}
	.st99{fill:url(#SVGID_81_);}
	.st100{fill:url(#SVGID_82_);}
	.st101{fill:url(#SVGID_83_);}
	.st102{fill:url(#SVGID_84_);}
	.st103{fill:url(#SVGID_85_);}
	.st104{fill:url(#SVGID_86_);}
	.st105{fill:url(#SVGID_87_);}
	.st106{fill:url(#SVGID_88_);}
	.st107{fill:url(#SVGID_89_);}
	.st108{fill:url(#SVGID_90_);}
	.st109{fill:url(#SVGID_91_);}
	.st110{fill:url(#SVGID_92_);}
	.st111{fill:url(#SVGID_93_);}
	.st112{fill:url(#SVGID_94_);}
	.st113{fill:url(#SVGID_95_);}
	.st114{fill:url(#SVGID_96_);}
	.st115{fill:url(#SVGID_97_);}
	.st116{fill-rule:evenodd;clip-rule:evenodd;fill:url(#SVGID_98_);}
	.st117{fill-rule:evenodd;clip-rule:evenodd;fill:url(#SVGID_99_);}
	.st118{fill-rule:evenodd;clip-rule:evenodd;fill:url(#SVGID_100_);}
	.st119{fill-rule:evenodd;clip-rule:evenodd;fill:url(#SVGID_101_);}
	.st120{fill-rule:evenodd;clip-rule:evenodd;fill:url(#SVGID_102_);}
	.st121{fill-rule:evenodd;clip-rule:evenodd;fill:url(#SVGID_103_);}
	.st122{fill-rule:evenodd;clip-rule:evenodd;fill:url(#SVGID_104_);}
	.st123{fill-rule:evenodd;clip-rule:evenodd;fill:url(#SVGID_105_);}
	.st124{fill-rule:evenodd;clip-rule:evenodd;fill:url(#SVGID_106_);}
	.st125{fill-rule:evenodd;clip-rule:evenodd;fill:url(#SVGID_107_);}
	.st126{fill-rule:evenodd;clip-rule:evenodd;fill:url(#SVGID_108_);}
	.st127{fill-rule:evenodd;clip-rule:evenodd;fill:url(#SVGID_109_);}
	.st128{fill-rule:evenodd;clip-rule:evenodd;fill:url(#SVGID_110_);}
	.st129{fill-rule:evenodd;clip-rule:evenodd;fill:url(#SVGID_111_);}
	.st130{fill:url(#SVGID_112_);}
	.st131{fill:url(#SVGID_113_);}
	.st132{fill:url(#SVGID_114_);}
	.st133{fill:url(#SVGID_115_);}
	.st134{fill-rule:evenodd;clip-rule:evenodd;fill:#BDD0FB;}
	.st135{opacity:0.7;}
	.st136{fill:url(#SVGID_116_);}
	.st137{fill:url(#SVGID_117_);}
	.st138{fill:url(#SVGID_118_);}
	.st139{fill:url(#SVGID_119_);}
</style>
<g id="Background">
	<g>
		<g>
			<rect class="st0" width="3710" height="3710"/>
		</g>
	</g>
</g>
<g id="Illustration">
	<g>
		<path class="st1" d="M3115.3,2330.3c-279.6,653.4-1017.5,934.1-1595.7,886.2c-157.9-13.1-475.5-39.4-723.5-273.9
			c-476.3-450.4-402.9-1391.9,53-1946.2c58.7-71.4,465.1-549.6,1098.5-543.2c463.7,4.7,789.2,266.6,828.7,299.3
			c50,41.2,160.3,139.2,259.6,294.6C3269.5,1412.2,3290,1921.9,3115.3,2330.3z"/>
		<g>
			<path class="st2" d="M477.1,1110.5c-3.9-10.6,10.7-19.7,21-13.2c104.8,66.2,362.1,271.1,352.9,683.7
				c-11.5,517.6,133.4,688.8,299.7,784c0,0-216.3-28.4-370.7-201.2C400.8,1939.4,545.8,1299.5,477.1,1110.5z"/>
			<path class="st0" d="M568.7,1260.9c18.7,55.3,36.1,110.8,51.1,167c15.3,56,28.7,112.5,40,169.3c11,56.9,20.9,113.9,27.8,171.3
				c7.3,57.4,11.7,115.1,15.9,173c4.6,57.9,8.8,116.2,19.9,174.1c11.1,57.8,30.3,115.2,61.2,167.4c7.7,13,15.7,26,24.6,38.3
				c8.6,12.5,17.8,24.7,27.3,36.7c19.1,24,40.1,46.8,63.1,68.2c46,42.6,99.7,78.8,157.6,108c6.1,3.1,14.1,1.2,17.8-4.2
				c3.7-5.3,1.9-12-3.9-15.2l0,0c-13.8-7.5-27.6-15-40.8-23.1c-6.7-4-13.2-8.2-19.8-12.3c-6.4-4.3-13-8.4-19.2-12.9
				c-25.2-17.6-48.9-36.7-70.8-57.3c-43.9-41-80.8-88.1-110.4-138c-14.5-25.1-26.8-51.1-36.7-78c-9.9-26.8-17.4-54.5-23-82.5
				c-11.3-56.2-16.1-113.8-21.1-171.7c-5.1-57.8-10.8-115.9-19.2-173.6c-4.1-28.9-8.8-57.6-14.1-86.3c-2.6-14.3-5.4-28.6-8.3-42.9
				c-3-14.3-6.1-28.5-9.3-42.7c-13-56.8-28.1-113.3-45.2-169.1c-17.4-55.8-36.5-111.1-58.1-165.6c-0.6-1.6-2.6-2.3-4.4-1.8
				C569.2,1257.7,568.2,1259.4,568.7,1260.9z"/>
		</g>
		<g>
			<g>
				<path class="st3" d="M1089.5,2021.8c-8.2,23.6-37.8,31.1-56.6,14.6c-103.3-91.3-371.8-376-351.9-851.5
					c16.8-401.5-12.2-620.9-32.3-719.5c-4.2-20.9,20.6-35,36.4-20.8C859.5,602,1386.8,1166.7,1089.5,2021.8z"/>
				<path class="st0" d="M1055.7,2022.5c-0.5,0.3-1.1,0.7-1.7,0.9c-4.9,2.1-10.7-0.2-12.8-5.1c-2.4-5.6-241.1-567.5-243-1126.9
					c0-5.4,4.3-9.8,9.7-9.8c5.4,0,9.8,4.3,9.8,9.7c1.8,555.3,239,1113.6,241.4,1119.2C1061,2014.9,1059.4,2019.9,1055.7,2022.5z"/>
			</g>
		</g>
		<g>
			<path class="st4" d="M853.6,923.2c0-93.6,75.9-169.5,169.5-169.5h1441.2c79.5,0,145.1,62.3,149.1,141.7l106.4,2089.4
				c3.2,62.1-45.8,114.5-108,115.7l-1651.7,30c-58.5,1.1-106.4-46-106.4-104.5L853.6,923.2L853.6,923.2z"/>
			<path class="st5" d="M1201.4,3095.1C1201.4,3095.1,1201.4,3095.1,1201.4,3095.1l-184.9-2.4c-61.8-0.8-112.1-51.7-112.1-113.5
				v-279c0-2.2,1.8-3.9,3.9-3.9c2.2,0,3.9,1.8,3.9,3.9v279c0,57.5,46.8,104.9,104.3,105.6l184.8,2.4c2.2,0,3.9,1.8,3.9,4
				C1205.3,3093.3,1203.6,3095.1,1201.4,3095.1z"/>
			<path class="st5" d="M908.4,2617.6c-2.2,0-3.9-1.8-3.9-3.9v-45.2c0-2.2,1.8-3.9,3.9-3.9c2.2,0,3.9,1.8,3.9,3.9v45.2
				C912.4,2615.8,910.6,2617.6,908.4,2617.6z"/>
			<g>
				<path class="st6" d="M971.7,785.9c-0.2-29.9,26.2-53.1,55.8-49.1c196.8,26.7,873.6,109.2,1433.1,66.3c25.5-2,47.7,17.4,49,42.9
					l111.5,2098.7c1.5,28.8-20.4,53.4-49.2,55.1c-235.3,13.9-1204.5,67.8-1550.2,31.6c-21-2.2-37-19.9-37.1-41.1L971.7,785.9z"/>
				<path class="st7" d="M994.9,838.5c-0.2-28.8,25.2-51.1,53.7-47.2c189.4,25.7,840.7,105.1,1379.1,63.8
					c24.6-1.9,45.9,16.7,47.2,41.3L2582.2,2916c1.5,27.7-19.7,51.4-47.4,53c-226.5,13.4-1159.1,65.2-1491.8,30.4
					c-20.2-2.1-35.6-19.2-35.7-39.5L994.9,838.5z"/>
				<g>
					<g class="st8">
						<path class="st0" d="M1218.1,1014.6c3.1,16.5,13.9,28,26.2,27.8l1001.6-11.9c11.3-0.1,20.4-13.1,20.1-28.9
							c-0.2-15.3-9.2-27.6-20.2-27.6l-1001.6-6.3C1226.5,967.6,1213.6,990.8,1218.1,1014.6z"/>
					</g>
					<g>
						<g class="st8">
							<path class="st0" d="M1339.9,1166.8c1.3,11.3,5.8,19.1,10.8,19l413.5-8.1c4.7-0.1,8.4-9,8.3-19.7
								c-0.1-10.5-3.8-18.8-8.4-18.9l-413.5-4.3C1343.4,1134.7,1338,1150.6,1339.9,1166.8z"/>
						</g>
						<g class="st8">
							<path class="st0" d="M1333.6,1304.1c2.3,11.3,10.3,19.1,19.3,19l737.8-8.1c8.3-0.1,15-9,14.8-19.7
								c-0.2-10.5-6.8-18.8-14.9-18.9l-737.8-4.3C1339.8,1272,1330.3,1287.9,1333.6,1304.1z"/>
						</g>
						<g class="st8">
							<path class="st0" d="M1329.2,1444.5c2.6,11.3,11.7,19.1,22,19l838.7-8.1c9.5-0.1,17.1-9,16.9-19.7
								c-0.2-10.5-7.7-18.8-16.9-18.9l-838.7-4.3C1336.3,1412.4,1325.4,1428.3,1329.2,1444.5z"/>
						</g>
						<g>
							<path class="st0" d="M1240,1372.7c-0.1,0-0.2,0-0.3,0l-102.8-1c-14.7-0.1-26.8-10.2-28.2-23.5l-9-86.2
								c-0.5-5.1,1-10.1,4.4-14.1c3.8-4.5,9.5-7.3,15.7-7.8l0,0c8.7-0.6,20.9-1.6,33.8-2.7c27.2-2.3,61-5.2,80-5.4
								c13.8-0.1,25.5,8.1,28.8,20.1c5.4,19.8,4.9,57.3,3.9,97.2C1266,1362.2,1254.2,1372.7,1240,1372.7z M1120.4,1248
								c-4.1,0.3-7.8,2.1-10.2,5c-2,2.4-2.9,5.3-2.6,8.2l9,86.2c1,9.3,9.8,16.3,20.4,16.4l102.8,1c0.1,0,0.1,0,0.2,0
								c10,0,18.2-7,18.4-15.7c1-39.3,1.5-76.1-3.6-94.9c-2.3-8.4-11-14.3-21.1-14.3c-18.8,0.2-52.4,3.1-79.5,5.4
								C1141.4,1246.4,1129.1,1247.4,1120.4,1248L1120.4,1248z"/>
							<path class="st9" d="M1131.5,1253.5c21.6-1.5,68.5-6.2,90.8-6.5c9.4-0.1,17.7,5.6,19.9,13.8c4.3,15.9,3.7,47.5,3,76.8
								c-0.2,8.8-8.3,15.7-18.1,15.6l-82.1-0.8c-10.1-0.1-18.5-7-19.4-16l-7.2-68.9C1117.6,1260.4,1123.5,1254.1,1131.5,1253.5z"/>
							<linearGradient id="SVGID_1_" gradientUnits="userSpaceOnUse" x1="1234.9252" y1="1321.8075" x2="1179.9275" y2="1227.9393">
								<stop  offset="0" style="stop-color:#E1473D"/>
								<stop  offset="1" style="stop-color:#E9605A"/>
							</linearGradient>
							<path class="st10" d="M1135.9,1265.7L1135.9,1265.7c7.6-4.5,17.4-1.8,21.8,5.9l20.3,36.3c2,3.6,7.3,3.4,9-0.4l50.3-111.9
								c2.5-5.6,10.8-3.7,10.7,2.4c-0.5,34.2-9.6,99.3-64.3,153.8c0,0-30.1-11.7-54.4-65C1125.7,1279.1,1128.6,1270,1135.9,1265.7z"
								/>
						</g>
					</g>
					<g>
						<g class="st8">
							<path class="st0" d="M1345.4,1650.3c3.3,11.3,14.9,19.1,28,19l1069.4-8.1c12.1-0.1,21.8-9,21.5-19.7
								c-0.3-10.5-9.8-18.8-21.6-18.9l-1069.4-4.3C1354.4,1618.2,1340.6,1634,1345.4,1650.3z"/>
						</g>
						<g class="st8">
							<path class="st0" d="M1338.3,1787.6c1.5,11.3,6.8,19.1,12.7,19l486.6-8.1c5.5-0.1,9.9-9,9.8-19.7
								c-0.1-10.5-4.5-18.8-9.8-18.9l-486.6-4.3C1342.4,1755.5,1336.1,1771.3,1338.3,1787.6z"/>
						</g>
						<g class="st8">
							<path class="st0" d="M1334.1,1928c2.6,11.3,11.7,19.1,22,19l838.7-8.1c9.5-0.1,17.1-9,16.9-19.7
								c-0.2-10.5-7.7-18.8-16.9-18.9L1356,1896C1341.2,1895.9,1330.4,1911.8,1334.1,1928z"/>
						</g>
						<g>
							<path class="st0" d="M1244.9,1856.1c-0.1,0-0.2,0-0.3,0l-102.8-1c-14.7-0.1-26.8-10.2-28.2-23.5l-9-86.2
								c-0.5-5.1,1-10.1,4.4-14.1c3.8-4.5,9.5-7.3,15.7-7.8l0,0c8.7-0.6,20.9-1.6,33.8-2.7c27.2-2.3,61-5.2,80-5.4
								c13.8-0.1,25.5,8.1,28.8,20.1c5.4,19.8,4.9,57.3,3.9,97.2C1270.9,1845.7,1259.1,1856.1,1244.9,1856.1z M1125.3,1731.4
								c-4.1,0.3-7.8,2.1-10.2,5c-2,2.4-2.9,5.3-2.6,8.2l9,86.2c1,9.3,9.8,16.3,20.4,16.4l102.8,1c0.1,0,0.1,0,0.2,0
								c10,0,18.2-7,18.4-15.7c1-39.3,1.5-76.1-3.6-94.9c-2.3-8.4-11-14.3-21.1-14.3c-18.8,0.2-52.4,3.1-79.5,5.4
								C1146.3,1729.8,1134.1,1730.8,1125.3,1731.4L1125.3,1731.4z"/>
							<path class="st9" d="M1136.4,1737c21.6-1.5,68.5-6.2,90.8-6.5c9.4-0.1,17.7,5.6,19.9,13.8c4.3,15.9,3.7,47.5,3,76.8
								c-0.2,8.8-8.3,15.7-18.1,15.6l-82.1-0.8c-10.1-0.1-18.5-7-19.4-16l-7.2-68.9C1122.5,1743.8,1128.4,1737.5,1136.4,1737z"/>
							
								<linearGradient id="SVGID_2_" gradientUnits="userSpaceOnUse" x1="1442.5387" y1="2382.2732" x2="917.7582" y2="1486.5961" gradientTransform="matrix(1 0 0 -1 0 3710)">
								<stop  offset="0" style="stop-color:#E1473D"/>
								<stop  offset="1" style="stop-color:#E9605A"/>
							</linearGradient>
							<path class="st11" d="M1140.8,1753.9L1140.8,1753.9c7.6-4.5,17.4-1.8,21.8,5.9l20.3,36.3c2,3.6,7.3,3.4,9-0.4l50.3-111.9
								c2.5-5.6,10.8-3.7,10.7,2.4c-0.5,34.2-9.6,99.3-64.3,153.8c0,0-30.1-11.7-54.4-65C1130.6,1767.3,1133.5,1758.2,1140.8,1753.9
								z"/>
						</g>
					</g>
					<g>
						<g class="st8">
							<path class="st0" d="M1343.6,2125.7c3.3,11.3,14.9,19.1,28,19l1069.4-8.1c12.1-0.1,21.8-9,21.5-19.7
								c-0.3-10.5-9.8-18.8-21.6-18.9l-1069.4-4.3C1352.6,2093.6,1338.8,2109.4,1343.6,2125.7z"/>
						</g>
						<g class="st8">
							<path class="st0" d="M1336.7,2263c2.3,11.3,10.3,19.1,19.3,19l737.8-8.1c8.3-0.1,15-9,14.8-19.7
								c-0.2-10.5-6.8-18.8-14.9-18.9L1356,2231C1342.9,2230.9,1333.4,2246.7,1336.7,2263z"/>
						</g>
						<g class="st8">
							<path class="st0" d="M1332,2403.4c1.3,11.3,6,19.1,11.3,19l430.5-8.1c4.9-0.1,8.8-9,8.7-19.7c-0.1-10.5-4-18.8-8.7-18.9
								l-430.5-4.3C1335.6,2371.3,1330,2387.2,1332,2403.4z"/>
						</g>
						<g>
							<path class="st0" d="M1243.1,2331.6c-0.1,0-0.2,0-0.3,0l-102.8-1c-14.7-0.1-26.8-10.2-28.2-23.5l-9-86.2
								c-0.5-5.1,1-10.1,4.4-14.1c3.8-4.5,9.5-7.3,15.7-7.8l0,0c8.7-0.6,20.9-1.6,33.8-2.7c27.2-2.3,61-5.2,80-5.4
								c13.8-0.1,25.5,8.1,28.8,20.1c5.4,19.8,4.9,57.3,3.9,97.2C1269.1,2321.1,1257.3,2331.6,1243.1,2331.6z M1123.5,2206.9
								c-4.1,0.3-7.8,2.1-10.2,5c-2,2.4-2.9,5.3-2.6,8.2l9,86.2c1,9.3,9.8,16.3,20.4,16.4l102.8,1c0.1,0,0.1,0,0.2,0
								c10,0,18.2-7,18.4-15.7c1-39.3,1.5-76.1-3.6-94.9c-2.3-8.4-11-14.3-21.1-14.3c-18.8,0.2-52.4,3.1-79.5,5.4
								C1144.5,2205.2,1132.3,2206.3,1123.5,2206.9L1123.5,2206.9z"/>
							<path class="st9" d="M1134.6,2212.4c21.6-1.5,68.5-6.2,90.8-6.5c9.4-0.1,17.7,5.6,19.9,13.8c4.3,15.9,3.7,47.5,3,76.8
								c-0.2,8.8-8.3,15.7-18.1,15.6l-82.1-0.8c-10.1-0.1-18.5-7-19.4-16l-7.2-68.9C1120.7,2219.3,1126.6,2213,1134.6,2212.4z"/>
							
								<linearGradient id="SVGID_3_" gradientUnits="userSpaceOnUse" x1="1440.7373" y1="1906.8531" x2="915.9567" y2="1011.1761" gradientTransform="matrix(1 0 0 -1 0 3710)">
								<stop  offset="0" style="stop-color:#E1473D"/>
								<stop  offset="1" style="stop-color:#E9605A"/>
							</linearGradient>
							<path class="st12" d="M1139,2229.3L1139,2229.3c7.6-4.5,17.4-1.8,21.8,5.9l20.3,36.3c2,3.6,7.3,3.4,9-0.4l50.3-111.9
								c2.5-5.6,10.8-3.7,10.7,2.4c-0.5,34.2-9.6,99.3-64.3,153.8c0,0-30.1-11.7-54.4-65C1128.8,2242.7,1131.7,2233.6,1139,2229.3z"
								/>
						</g>
					</g>
					<g>
						<g class="st8">
							<path class="st0" d="M1340.6,2630.6c3.3,11.3,14.9,19.1,28,19l1069.4-8.1c12.1-0.1,21.8-9,21.5-19.7
								c-0.3-10.5-9.8-18.8-21.6-18.9l-1069.4-4.3C1349.6,2598.5,1335.8,2614.4,1340.6,2630.6z"/>
						</g>
						<g class="st8">
							<path class="st0" d="M1333.7,2767.9c2.3,11.3,10.3,19.1,19.3,19l737.8-8.1c8.3-0.1,15-9,14.8-19.7
								c-0.2-10.5-6.8-18.8-14.9-18.9l-737.8-4.3C1339.9,2735.8,1330.4,2751.7,1333.7,2767.9z"/>
						</g>
						<g class="st8">
							<path class="st0" d="M1329.2,2908.3c2.1,11.3,9.4,19.1,17.6,19l673.3-8.1c7.6-0.1,13.7-9,13.5-19.7
								c-0.2-10.5-6.2-18.8-13.6-18.9l-673.3-4.3C1334.9,2876.2,1326.2,2892.1,1329.2,2908.3z"/>
						</g>
						<g>
							<path class="st0" d="M1240.1,2836.5c-0.1,0-0.2,0-0.3,0l-102.8-1c-14.7-0.1-26.8-10.2-28.2-23.5l-9-86.2
								c-0.5-5.1,1-10.1,4.4-14.1c3.8-4.5,9.5-7.3,15.7-7.8l0,0c8.7-0.6,20.9-1.6,33.8-2.7c27.2-2.3,61-5.2,80-5.4
								c13.8-0.1,25.5,8.1,28.8,20.1c5.4,19.8,4.9,57.3,3.9,97.2C1266.1,2826,1254.3,2836.5,1240.1,2836.5z M1120.5,2711.8
								c-4.1,0.3-7.8,2.1-10.2,5c-2,2.4-2.9,5.3-2.6,8.2l9,86.2c1,9.3,9.8,16.3,20.4,16.4l102.8,1c0.1,0,0.1,0,0.2,0
								c10,0,18.2-7,18.4-15.7c1-39.3,1.5-76.1-3.6-94.9c-2.3-8.4-11-14.3-21.1-14.3c-18.8,0.2-52.4,3.1-79.5,5.4
								C1141.5,2710.2,1129.3,2711.2,1120.5,2711.8L1120.5,2711.8z"/>
							<path class="st9" d="M1131.6,2717.3c21.6-1.5,68.5-6.2,90.8-6.5c9.4-0.1,17.7,5.6,19.9,13.8c4.3,15.9,3.7,47.5,3,76.8
								c-0.2,8.8-8.3,15.7-18.1,15.6l-82.1-0.8c-10.1-0.1-18.5-7-19.4-16l-7.2-68.9C1117.7,2724.2,1123.6,2717.9,1131.6,2717.3z"/>
							
								<linearGradient id="SVGID_4_" gradientUnits="userSpaceOnUse" x1="1437.7418" y1="1401.931" x2="912.9614" y2="506.2546" gradientTransform="matrix(1 0 0 -1 0 3710)">
								<stop  offset="0" style="stop-color:#E1473D"/>
								<stop  offset="1" style="stop-color:#E9605A"/>
							</linearGradient>
							<path class="st13" d="M1136,2734.2L1136,2734.2c7.6-4.5,17.4-1.8,21.8,5.9l20.3,36.3c2,3.6,7.3,3.4,9-0.4l50.3-111.9
								c2.5-5.6,10.8-3.7,10.7,2.4c-0.5,34.2-9.6,99.3-64.3,153.8c0,0-30.1-11.7-54.4-65C1125.8,2747.6,1128.7,2738.5,1136,2734.2z"
								/>
						</g>
					</g>
				</g>
			</g>
			<path class="st4" d="M1833,468.9c-52.1-36.2-97.3-35.5-129.2-26.1c-29.1,8.6-47.9,36.6-45.1,66.8l13.7,150l163.5,14.5
				C1836,674.1,1935.1,539.9,1833,468.9z M1761.1,589.9c-22.5,0-40.8-18.3-40.8-40.8c0-22.5,18.3-40.8,40.8-40.8
				s40.8,18.3,40.8,40.8C1801.9,571.6,1783.6,589.9,1761.1,589.9z"/>
			<g>
				<path class="st5" d="M1688.8,596.5c-2,0-3.7-1.5-3.9-3.6l-2.2-23.9c-0.2-2.2,1.4-4.1,3.6-4.3c2.2-0.2,4.1,1.4,4.3,3.6l2.2,23.9
					c0.2,2.2-1.4,4.1-3.6,4.3C1689,596.5,1688.9,596.5,1688.8,596.5z M1684.5,549.7c-2,0-3.7-1.5-3.9-3.6l-1.7-18.1
					c-2.6-28.7,15.5-55.5,43-63.7c19.5-5.8,39.6-6.6,59.8-2.5c2.1,0.4,3.5,2.5,3.1,4.7c-0.4,2.1-2.5,3.5-4.7,3.1
					c-18.9-3.9-37.7-3.1-55.9,2.3c-24,7.1-39.7,30.4-37.4,55.4l1.7,18.1c0.2,2.2-1.4,4.1-3.6,4.3
					C1684.7,549.7,1684.6,549.7,1684.5,549.7z"/>
			</g>
			<path class="st4" d="M1449.3,756.5v-75.4c0-26,21.6-46.9,47.6-46l519.9,17.8c23.1,0.8,41.8,19,43.1,42l4.3,72.5L1449.3,756.5z"/>
			<path class="st5" d="M1643.1,663.5h-22.4c-2.2,0-3.9-1.8-3.9-3.9c0-2.2,1.8-3.9,3.9-3.9h22.4c2.2,0,3.9,1.8,3.9,3.9
				C1647.1,661.8,1645.3,663.5,1643.1,663.5z"/>
			<path class="st5" d="M1477.4,732.8c-2.2,0-3.9-1.8-3.9-3.9v-30.5c0-23.6,19.2-42.7,42.7-42.7h82.2c2.2,0,3.9,1.8,3.9,3.9
				c0,2.2-1.8,3.9-3.9,3.9h-82.2c-19.2,0-34.9,15.6-34.9,34.9v30.5C1481.4,731.1,1479.6,732.8,1477.4,732.8z"/>
			<path class="st6" d="M1237.4,775.6c1.3-26.1,22.8-46.6,48.9-46.6l909.2,0c32.7,0,60.6,23.5,66.2,55.7l0.8,4.4
				c6.1,35.3-21.1,67.6-56.9,67.6h-932.7c-21.4,0-38.5-17.9-37.5-39.3L1237.4,775.6z"/>
		</g>
		<g>
			<g>
				<path class="st4" d="M2719.3,816.3c-249.9,0-492.7-8.6-718.4,147.3l42.1,73c135.4-137.1,443.7-155.9,662.7-158.1L2719.3,816.3z"
					/>
				
					<linearGradient id="SVGID_5_" gradientUnits="userSpaceOnUse" x1="3113.9602" y1="2977.3298" x2="2373.0925" y2="779.9207" gradientTransform="matrix(1 0 0 -1 0 3710)">
					<stop  offset="0" style="stop-color:#FF928E"/>
					<stop  offset="1" style="stop-color:#FE7062"/>
				</linearGradient>
				<path class="st14" d="M2745.9,950.4h-210l-270.4,141c-38.5,21.3-62.3,61.8-62.3,105.8v1864.7c0,41.3,26,78.1,65,91.7
					c251.2,87.1,502.3,86.7,753.5-1.3c36.7-12.9,61.3-47.5,61.3-86.4V1197.9c0-44.4-24.2-85.2-63.2-106.5L2745.9,950.4z"/>
				
					<linearGradient id="SVGID_6_" gradientUnits="userSpaceOnUse" x1="3368.5715" y1="3273.0054" x2="2410.9873" y2="1216.7148" gradientTransform="matrix(1 0 0 -1 0 3710)">
					<stop  offset="0" style="stop-color:#E1473D"/>
					<stop  offset="1" style="stop-color:#E9605A"/>
				</linearGradient>
				<path class="st15" d="M3082.8,2391.7c-310.3,98.5-603.7,99.2-879.6,0v-793.3c295.8,74.4,589,74.4,879.6,0V2391.7z"/>
				
					<linearGradient id="SVGID_7_" gradientUnits="userSpaceOnUse" x1="1333.7711" y1="842.3375" x2="2969.3679" y2="1263.1119" gradientTransform="matrix(1 0 0 -1 0 3710)">
					<stop  offset="0" style="stop-color:#E1473D"/>
					<stop  offset="1" style="stop-color:#E9605A"/>
				</linearGradient>
				<path class="st16" d="M3072.9,2584.9c-296.5,91.3-585,92.3-864,0.6c-11.6-3.8-20.1-13.9-20.1-26.1v-68.9
					c0-7.5,7.1-13.5,14.2-11.4c289,83.1,577.4,82,866.1,1.6c11-3.1,21.7,6.1,21.7,17.6v63.3
					C3090.9,2572.4,3083.4,2581.6,3072.9,2584.9z"/>
				<path class="st17" d="M3076.2,1772.6c-296.5,91.3-585,92.3-864,0.6c-11.6-3.8-20.1-13.9-20.1-26.1v-68.9
					c0-7.5,7.1-13.5,14.2-11.4c289,83.1,577.4,82,866.1,1.6c11-3.1,21.7,6.1,21.7,17.6v63.3
					C3094.2,1760.2,3086.7,1769.4,3076.2,1772.6z"/>
				<path class="st4" d="M1471.5,1250.7l516-273.9l61.6,73.5l-434.5,387.5c-10.4,9.8-27.6,8.8-41.5-2.6
					c-61.5-50.7-93.6-102.1-110-153.7C1459.1,1268.7,1462.5,1256.4,1471.5,1250.7z"/>
				
					<linearGradient id="SVGID_8_" gradientUnits="userSpaceOnUse" x1="2247.0889" y1="3160.8726" x2="2790.9529" y2="2493.6108" gradientTransform="matrix(1 0 0 -1 0 3710)">
					<stop  offset="0" style="stop-color:#E1473D"/>
					<stop  offset="1" style="stop-color:#E9605A"/>
				</linearGradient>
				<path class="st18" d="M2540.5,898.9l-94.7-5.2c-2.1-0.1-3.8-2-3.7-4.1l4.2-77.1c0.1-2.1,2-3.8,4.1-3.7l94.7,5.2
					c2.1,0.1,3.8,2,3.7,4.1l-4.2,77.1C2544.5,897.4,2542.7,899,2540.5,898.9z"/>
				
					<linearGradient id="SVGID_9_" gradientUnits="userSpaceOnUse" x1="2689.1274" y1="3471.8621" x2="2628.6482" y2="2680.594" gradientTransform="matrix(1 0 0 -1 0 3710)">
					<stop  offset="0" style="stop-color:#E1473D"/>
					<stop  offset="1" style="stop-color:#E9605A"/>
				</linearGradient>
				<rect x="2535.9" y="786.8" class="st19" width="210" height="163.6"/>
				
					<linearGradient id="SVGID_10_" gradientUnits="userSpaceOnUse" x1="2799.5579" y1="3377.363" x2="2807.1377" y2="2551.092" gradientTransform="matrix(0.9942 0.1074 0.1074 -0.9942 -210.4348 3648.0107)">
					<stop  offset="0" style="stop-color:#E1473D"/>
					<stop  offset="1" style="stop-color:#E9605A"/>
				</linearGradient>
				<path class="st20" d="M2572.4,739.1c239.3,134.4,467.1,255,651.3,323.4c11.3,4.2,20.1-10.1,11-18
					c-142.6-124.8-333.1-248.1-551.5-370.6L2572.4,739.1z"/>
				
					<linearGradient id="SVGID_11_" gradientUnits="userSpaceOnUse" x1="2545.8552" y1="2906.1394" x2="3478.2412" y2="3586.5281" gradientTransform="matrix(1 0 0 -1 0 3710)">
					<stop  offset="0" style="stop-color:#E1473D"/>
					<stop  offset="1" style="stop-color:#E9605A"/>
				</linearGradient>
				<path class="st21" d="M2536.7,665.8c-112.3,55.4-51.6,218.7,65.2,175.2c227.8-128.1,440.8-258.4,631.6-392
					c7.5-5.2,2.5-15.5-6.4-13.3C2992.1,494.1,2762.2,571.9,2536.7,665.8z"/>
				
					<linearGradient id="SVGID_12_" gradientUnits="userSpaceOnUse" x1="2482.0088" y1="2686.8298" x2="2898.6633" y2="3073.2429" gradientTransform="matrix(1 0 0 -1 0 3710)">
					<stop  offset="0" style="stop-color:#E1473D"/>
					<stop  offset="1" style="stop-color:#E9605A"/>
				</linearGradient>
				<circle class="st22" cx="2572.4" cy="939.3" r="70.7"/>
				<ellipse class="st0" cx="2572.4" cy="939.3" rx="47.4" ry="47.4"/>
				
					<linearGradient id="SVGID_13_" gradientUnits="userSpaceOnUse" x1="-2108.5901" y1="4722.7881" x2="-1527.7822" y2="4315.2856" gradientTransform="matrix(0.5855 0.8107 0.8107 -0.5855 -598.582 5108.7432)">
					<stop  offset="0" style="stop-color:#E1473D"/>
					<stop  offset="1" style="stop-color:#E9605A"/>
				</linearGradient>
				<path class="st23" d="M2011.5,960.7c10.1,28.6,26.8,52.2,50.3,70.6c5.4,4.2,6.4,12,2,17.3c-10.6,12.9-24.1,25-41,36.2
					c-7,4.7-16.2,4.6-23.2-0.2c-30.3-20.7-52.3-45.7-63.5-76.5c-2.5-6.8-0.3-14.4,5.4-18.9c18.7-14.8,37.4-27.2,56.1-34.8
					C2003.2,952.2,2009.5,955.1,2011.5,960.7z"/>
				
					<rect x="2382.6" y="1056.3" transform="matrix(0.8785 -0.4777 0.4777 0.8785 -208.9997 1297.1715)" class="st24" width="126.7" height="6.4"/>
				<path class="st24" d="M2257,1303h-6.4v-87.5c0-32.9,18-63.2,46.9-78.9l59.4-32.3l3.1,5.7l-59.4,32.3
					c-26.9,14.6-43.5,42.7-43.5,73.3L2257,1303L2257,1303z"/>
				<rect x="2250.6" y="1344.3" class="st24" width="6.4" height="171.2"/>
				
					<linearGradient id="SVGID_14_" gradientUnits="userSpaceOnUse" x1="2688.9292" y1="1723.7974" x2="3156.1143" y2="1225.4668" gradientTransform="matrix(0.9373 -0.3486 -0.3486 -0.9373 506.3827 3231.5022)">
					<stop  offset="0" style="stop-color:#FF928E"/>
					<stop  offset="1" style="stop-color:#FE7062"/>
				</linearGradient>
				<circle class="st25" cx="2574.8" cy="752.5" r="29.9"/>
				<path class="st24" d="M2529.6,690.5l-2.4-6c238.7-94.9,395.8-149.3,600.4-208l1.8,6.2C2925,541.4,2768.1,595.7,2529.6,690.5z"/>
				<path class="st17" d="M2321.1,1874.7c191.7,58.2,405.6,63,648-0.7c18.9-5,37.5,9.2,37.5,28.8v410.5c0,25.9-18.7,48.1-44.3,52.3
					c-235.9,39.1-451.1,33.7-645.6-16.4c-17.5-4.5-29.8-20.2-29.8-38.3v-410.8C2287,1882.4,2304.1,1869.5,2321.1,1874.7z"/>
			</g>
		</g>
		<g>
			<g>
				<path class="st6" d="M2093.8,3128.5c0,0,5.8,32.9,8.7,65.4c1.1,12.7-8.7,23.8-21.5,24.3c-43.3,1.8-136.1,5.3-169.3,3.8
					c-5-0.2-8.3-5.3-6.4-10l0,0c1.6-3.9,4.5-7,8.4-8.8l153.2-70.4L2093.8,3128.5z"/>
				
					<linearGradient id="SVGID_15_" gradientUnits="userSpaceOnUse" x1="5015.8652" y1="581.6459" x2="5065.6826" y2="581.6459" gradientTransform="matrix(-1 0 0 -1 7114.3755 3710)">
					<stop  offset="0" style="stop-color:#FEBBBA"/>
					<stop  offset="1" style="stop-color:#FF928E"/>
				</linearGradient>
				<path class="st26" d="M2098.5,3109.2l-4.7,39.3c0,0-26.8,12.5-45.1-1.6l11.1-43.8L2098.5,3109.2z"/>
				<path class="st27" d="M2095,2369.7c2,10.6,7.4,531.9-46.3,765.3c-0.9,3.8-6.4,11.3-4.5,14.6c4.7,8,39,5.7,58.3,6.4
					c6,0.2,9.2-6.8,10.9-12.8c15.3-54.1,88.9-325.4,98.5-584.6c10.7-289.6,0-9.9,0-9.9l-6.3-179L2095,2369.7z"/>
				<path class="st6" d="M2269.9,3145.6c0,0,9.2,16.6,18.2,60.7c1.6,8-3.9,15.6-12,16.4c-14.3,1.4-36.3,3.2-54,3.1
					c-8.1-0.1-14.5-7.1-13.5-15.2c2-16.1,8-42.5,26.9-63.1L2269.9,3145.6z"/>
				
					<linearGradient id="SVGID_16_" gradientUnits="userSpaceOnUse" x1="4836.3213" y1="584.2015" x2="4879.3345" y2="584.2015" gradientTransform="matrix(-1 0 0 -1 7114.3755 3710)">
					<stop  offset="0" style="stop-color:#FEBBBA"/>
					<stop  offset="1" style="stop-color:#FF928E"/>
				</linearGradient>
				<path class="st28" d="M2278.1,3095.1l-10.9,59.5c0,0-10.8,8-32.1,2.2l5.2-64L2278.1,3095.1z"/>
				<path class="st27" d="M2307.5,2386.4c43.9,276.6-9.5,683.7-27.5,763.4c-1.1,4.9-4.9,8.6-9.6,9.4c-8,1.4-21.3,2.5-34.3-1.4
					c-4.5-1.4-7.7-5.6-7.8-10.5c-2.4-64.4,1.9-459.8-39-616.1c-2.1-7.9-6.7-14.8-13.1-19.6l-79.4-58.9l-6.1-95.3L2307.5,2386.4z"/>
				<g>
					<path class="st4" d="M2027.7,1883c131.6-2.2,276.8,34.6,276.8,34.6c39.2,228.9,6.9,492.9,6.9,492.9
						c-101.9,26.7-216.8-16.3-216.8-16.3c-16.9-95.7-95.9-364.9-95.9-364.9c-64.3-8-117.3-26.5-160.9-51.1
						c33.3-38.6,49-87.6,55.8-116.6C1940,1875.9,1987.1,1883.7,2027.7,1883z"/>
					
						<linearGradient id="SVGID_17_" gradientUnits="userSpaceOnUse" x1="1955.807" y1="1694.668" x2="1469.6952" y2="2163.6958" gradientTransform="matrix(1 0 0 -1 0 3710)">
						<stop  offset="0" style="stop-color:#FEBBBA"/>
						<stop  offset="1" style="stop-color:#FF928E"/>
					</linearGradient>
					<path class="st29" d="M1639,1689.2c12.9-15.6,29.3-8.2,29.3-8.2c19.4,81.8,120.9,148.1,225.2,180.5
						c-6.8,29-22.5,78.1-55.8,116.6C1664.6,1880.8,1639,1689.2,1639,1689.2z"/>
				</g>
				<g>
					
						<linearGradient id="SVGID_18_" gradientUnits="userSpaceOnUse" x1="1984.9709" y1="1724.8954" x2="1498.8589" y2="2193.9238" gradientTransform="matrix(1 0 0 -1 0 3710)">
						<stop  offset="0" style="stop-color:#FEBBBA"/>
						<stop  offset="1" style="stop-color:#FF928E"/>
					</linearGradient>
					<path class="st30" d="M1642.1,1693.1c-1.4,4.3,14.3,10.8,23.5-6.7c0.3-8.4,5.4-44.5,0.4-51.4c-26.8-36.6-78.8-82.4-78.8-82.4
						c-8.8,8.7-1.5,17.2-1.5,17.2l25.2,26.3c-5.3,9.5-11.7,17.6-14.7,29.1c-2.3,8.7-0.9,18.1,3.5,26c4.4,8,10.5,18.3,16.2,26.5
						C1626.7,1693,1642.1,1693.1,1642.1,1693.1z"/>
					
						<linearGradient id="SVGID_19_" gradientUnits="userSpaceOnUse" x1="5412.1733" y1="1958.1086" x2="5483.4346" y2="2067.6724" gradientTransform="matrix(-1 0 0 -1 7114.3755 3710)">
						<stop  offset="0" style="stop-color:#FEBBBA"/>
						<stop  offset="1" style="stop-color:#FF928E"/>
					</linearGradient>
					<path class="st31" d="M1622,1613.1l23,19.5l7.2,19.4l-20.5,22.7c0,0-6.9-38.5-12-46.8C1614.5,1619.6,1617.2,1615.5,1622,1613.1
						z"/>
				</g>
				<path class="st4" d="M2254,2045l50.5-127.4c0,0,122.9,83.5,143.1,189.4c-23.2,1.7-65.5,7.8-106.9,28.6
					C2331.7,2085.6,2254,2045,2254,2045z"/>
				
					<linearGradient id="SVGID_20_" gradientUnits="userSpaceOnUse" x1="4663.9424" y1="1520.8276" x2="4986.0283" y2="1520.8276" gradientTransform="matrix(-1 0 0 -1 7114.3755 3710)">
					<stop  offset="0" style="stop-color:#FEBBBA"/>
					<stop  offset="1" style="stop-color:#FF928E"/>
				</linearGradient>
				<path class="st32" d="M2146.6,2164.9c0,0,138,78,184.6,11.4c9.7-13.8,12-27.6,9.6-40.7c41.4-20.9,83.6-26.9,106.9-28.6
					c6.1,31.9,2.9,65.9-15.9,100.2c-81.6,149.2-303.4-8.2-303.4-8.2L2146.6,2164.9z"/>
				<g>
					
						<linearGradient id="SVGID_21_" gradientUnits="userSpaceOnUse" x1="2133.5994" y1="1864.9181" x2="2069.7571" y2="1738.9135" gradientTransform="matrix(1 0 0 -1 0 3710)">
						<stop  offset="0" style="stop-color:#FF928E"/>
						<stop  offset="1" style="stop-color:#FE7062"/>
					</linearGradient>
					<path class="st33" d="M2163.2,2263.5l-75.3-263c-0.9-3-3.4-5.2-6.5-5.5c-13.6-1.6-53.2-6.1-98.8-9.9c-55-4.7-118.9-8.4-157-5.2
						c-5.4,0.5-8.7,6.2-6.3,11.1c21.7,43.9,111,222.5,155.7,281c1.5,1.9,3.8,3.1,6.2,3l174.7-1.6
						C2160.9,2273.3,2164.6,2268.4,2163.2,2263.5z"/>
					<path class="st6" d="M1974.7,1962.3l-54.6-9.1c-2.9-0.5-5.3,2.3-4.4,5.1l5.4,16.4c0.5,1.4,1.7,2.5,3.2,2.7l52.5,7
						c2.7,0.4,5-2.1,4.3-4.8l-3.3-14.3C1977.5,1963.7,1976.3,1962.5,1974.7,1962.3z"/>
					<path class="st6" d="M2015.6,2008.5l-4.5-23.4c-0.5-2.3-2.4-4.1-4.8-4.4l-110.3-11.2c-3.7-0.4-6.7,3-5.8,6.7l7,29.2
						c0.6,2.3,2.6,4,5,4.1l107.8,5.4C2013.5,2015.1,2016.3,2011.9,2015.6,2008.5z"/>
					
						<linearGradient id="SVGID_22_" gradientUnits="userSpaceOnUse" x1="4962.1147" y1="1554.598" x2="5062.457" y2="1554.598" gradientTransform="matrix(-1 0 0 -1 7114.3755 3710)">
						<stop  offset="0" style="stop-color:#FEBBBA"/>
						<stop  offset="1" style="stop-color:#FF928E"/>
					</linearGradient>
					<path class="st34" d="M2145,2200c0,0,10.5-43.1,6.3-58.4s-12.4-35-39.8-30.6s-59.6,15.9-59.6,15.9s1.6,19.9,22.4,13.5l-12.9,10
						c0,0,1.8,16,19.4,7.4l-12,13.2c0,0,7.5,13.1,20.4,4.7C2102.2,2167.2,2108.4,2205.2,2145,2200z"/>
				</g>
				
					<linearGradient id="SVGID_23_" gradientUnits="userSpaceOnUse" x1="4911.2603" y1="1865.1571" x2="5038.6025" y2="1865.1571" gradientTransform="matrix(-1 0 0 -1 7114.3755 3710)">
					<stop  offset="0" style="stop-color:#FEBBBA"/>
					<stop  offset="1" style="stop-color:#FF928E"/>
				</linearGradient>
				<path class="st35" d="M2161,1776.2l41.9,121.1c0.7,2-0.1,4.2-2,5.3c-11.4,6.3-52.5,24.6-102.1-6.9c-5.2-3.3-8.7-8.6-9.5-14.7
					l-13.6-104.8L2161,1776.2L2161,1776.2z"/>
				<g>
					
						<linearGradient id="SVGID_24_" gradientUnits="userSpaceOnUse" x1="-387.346" y1="2494.1777" x2="-434.9327" y2="2651.1292" gradientTransform="matrix(-0.746 -0.6659 0.6659 -0.746 95.6533 3366.5522)">
						<stop  offset="0" style="stop-color:#FEBBBA"/>
						<stop  offset="1" style="stop-color:#FF928E"/>
					</linearGradient>
					<path class="st36" d="M2069.9,1664c0,0-46,86.6-40.1,121.5c5.9,35,62.9,32.5,112.6,4.1l34.8-93.5L2069.9,1664z"/>
					<path class="st37" d="M2140.2,1743.7c-2-0.9-2.8-3.4-1.6-5.2c3.7-5.6,10.6-17.1,12.8-27.2c0,0,8.3-5.3-21-12.3
						c-16-3.8-44.2-7-56.7-18.4c-13.9-12.8,11.7-37.1,22.5-43.6c14.2-8.6,31.6-13.7,47.6-9.3c7.7,2.1,14.8,6.2,21.7,10.3
						c11.8,7,23.9,14.3,31.4,25.8c4.8,7.4,7.4,16,9.7,24.6c3.3,12.3,6.4,24.8,5.8,37.5c-1.5,33.8-41.2,64.1-73.1,67.8
						c-2.6,0.3-4.6-2.3-3.8-4.8l13-37.9c0.6-1.8-0.2-3.7-1.9-4.4L2140.2,1743.7z"/>
					
						<linearGradient id="SVGID_25_" gradientUnits="userSpaceOnUse" x1="-435.9916" y1="2494.9087" x2="-478.8056" y2="2636.1196" gradientTransform="matrix(-0.746 -0.6659 0.6659 -0.746 95.6533 3366.5522)">
						<stop  offset="0" style="stop-color:#FEBBBA"/>
						<stop  offset="1" style="stop-color:#FF928E"/>
					</linearGradient>
					<path class="st38" d="M2135,1749.1c0,0,32.7-22.5,35.1-3.5c2.4,18.9-29.5,27.4-45.3,20.3L2135,1749.1z"/>
				</g>
			</g>
			<g>
				<path class="st4" d="M2062.6,1667.8c61.7-116.5,221.6-10.7,147.2,87.5C2154.5,1718.5,2092,1663.8,2062.6,1667.8z"/>
				<path class="st4" d="M2066.7,1655.2c-124.7-6.3-22.1,39.9,91.5,64.6C2129.9,1689.8,2101.7,1667.4,2066.7,1655.2z"/>
			</g>
			<g>
				<path class="st39" d="M2176.8,2050c9.7,0.8,91.3,3.4,91.3,3.4l-3.3,82.2l-42.3,23.9l-45.7-23.9V2050z"/>
				<polygon class="st40" points="2170.3,2050 2267.9,2053.4 2271.9,2084.9 2221.1,2098.1 2167.1,2074 				"/>
			</g>
			<g>
				<path class="st6" d="M2092.2,2381.5c55.3,19.9,133.2,19.9,221.1,11.1l-0.8,26.6c-93,9.7-173.9,11.1-218.7-12.2L2092.2,2381.5z"
					/>
				<path class="st6" d="M2318.7,2432.2l-99.5,5.9c-2.3,0.1-4.3-1.6-4.4-3.9l-2.7-44.8c-0.1-2.3,1.6-4.3,3.9-4.4l95.4-5.7
					c4.6-0.3,8.5,3.2,8.8,7.8l2.4,40.7C2322.8,2430.1,2321,2432.1,2318.7,2432.2z"/>
			</g>
			<g>
				
					<ellipse transform="matrix(0.9935 -0.1142 0.1142 0.9935 -218.4632 282.4025)" class="st0" cx="2355.7" cy="2048" rx="47.9" ry="47.9"/>
				
					<linearGradient id="SVGID_26_" gradientUnits="userSpaceOnUse" x1="2390.7107" y1="1623.2246" x2="2380.8562" y2="1490.7339" gradientTransform="matrix(0.9145 -0.4046 -0.4046 -0.9145 782.9664 4377.9292)">
					<stop  offset="0" style="stop-color:#E1473D"/>
					<stop  offset="1" style="stop-color:#E9605A"/>
				</linearGradient>
				<path class="st41" d="M2373.4,2078.6c17.3-11.9,21-23.8,14.4-35.8c1,5.1-1.2,8.2-5.6,10.1c2.2-9.5,1.4-16.9-2.3-22.2l-0.8,1.5
					c-1.5-3.6-2.6-7.1-2.8-10.4c-5.3,2.3-8.3,6.7-10.6,11.9c-1.1-8.6-23-11.5-13.5-25c-6.6,2.2-12.4,7.5-17.5,14.8l0.5-3.7
					c-5.7,7.2-4.2,16.1,0.7,25.9c-5.3,2.9-8.4,0.5-10.1-5.2c-2.5,3.9-2.3,8.4,0.2,13.3l-2.5-1c2.4,8.6,8.9,14.5,17.4,17.6
					c-3.4,3.1-7.4,2.1-10.5-0.6c5.9,14.6,19.6,17.4,39.6,11c0.1-0.1,0.2-0.1,0.3-0.2c-0.1,0.1-0.2,0.1-0.4,0.2
					c-6.8,2.7-25.1-3.6-28.7-22.5c2.6,3.7,4.5,1.8,8.7,4.7c-6.4-17,4.9-20.8-0.6-28.4c8.9,6.2,15.3,11.2,16.9,20.2
					c1-8.3,6.1-6.3,6.5-11.6C2380.1,2056.4,2381.1,2071.8,2373.4,2078.6z"/>
				<polygon class="st3" points="2343.8,2097.6 2339,2096 2370.7,2000.7 2375.6,2002.3 				"/>
				<path class="st3" d="M2376,2095.8c-26.4,11.7-57.5-0.3-69.2-26.7c-11.7-26.4,0.3-57.5,26.7-69.2c26.4-11.7,57.5,0.3,69.2,26.7
					C2414.4,2053.1,2402.4,2084.1,2376,2095.8z M2335.6,2004.5c-23.9,10.6-34.7,38.6-24.1,62.4c10.6,23.9,38.6,34.7,62.4,24.1
					c23.9-10.6,34.7-38.6,24.1-62.4C2387.5,2004.8,2359.5,1994,2335.6,2004.5z"/>
			</g>
		</g>
	</g>
	<g>
		
			<linearGradient id="SVGID_27_" gradientUnits="userSpaceOnUse" x1="7391.8071" y1="-3823.5579" x2="5447.2148" y2="-1753.5088" gradientTransform="matrix(1 0 0 -1 0 3710)">
			<stop  offset="0" style="stop-color:#DAE3FE"/>
			<stop  offset="1" style="stop-color:#E9EFFD"/>
		</linearGradient>
		<path class="st42" d="M6806.7,6702.4c-69,76.5-135.9,117.5-185.1,150.3c-479.3,320.2-1027.1,227.9-1196.5,196.4
			c-273.3-50.9-504-86.8-702.1-265.9c-450.4-407.1-428.5-1256.4-84.3-1782.4c40.8-62.4,384.4-572,933.4-643.8
			c13.4-1.8,23.4-2.8,32.2-3.7c84.9-9,611.2-56.5,1040.4,303.3c61.4,51.5,160.3,144.4,252,286
			C7231.9,5460.5,7189.9,6277.8,6806.7,6702.4z"/>
		<g>
			<g>
				<defs>
					<path id="SVGID_28_" d="M6812.3,6692c-159.9,171-371,291.9-598.9,358.2c-314.7,91.5-649.6,56.4-964.2-17.8
						c-42.7-10.1-85.1-21.8-127-35.4c-201.6-65.8-396.1-182.1-528.2-360.2c-136.9-184.5-208.4-410.4-227.7-643.3
						c-14.6-176.6,22.7-426.4,16.2-602.8c-14.1-385.4,8-745.2,105.8-890c40.4-59.8,498.9-70,1042.3-138.9
						c13.3-1.7,23.2-2.6,31.9-3.5c84.1-8.6,604.9-54.2,1029.7,291c60.8,49.4,158.6,138.5,249.4,274.4
						c225.3,337.5,318.6,794.8,250.8,1201.7C7054.5,6351.1,6953.3,6541.1,6812.3,6692z"/>
				</defs>
				<clipPath id="SVGID_29_">
					<use xlink:href="#SVGID_28_"  style="overflow:visible;"/>
				</clipPath>
				<polygon class="st43" points="5133.9,3700.5 5115.4,5392.9 4766.4,3741.6 5079.2,5401 4414.9,3863 5045.5,5417 4094.9,4059.4 
					5015.6,5440.1 3820.3,4322.3 4998.7,5474 3619.4,4650.1 4980.8,5508.6 3452.9,4999 4961,5540.7 3376,5383.3 4957.1,5579.8 
					3376,5776.2 4961,5618.8 3452.9,6160.5 4972.4,5656.2 3603.1,6519.4 4990.9,5690.2 3820.3,6837.2 5015.6,5719.4 4094.9,7100.1 
					5045.5,5742.5 4414.9,7296.5 5079.2,5758.5 4766.4,7417.9 5115.4,5766.6 5133.9,7459 5152.3,5766.6 5501.3,7417.9 
					5188.5,5758.5 5852.8,7296.5 5222.2,5742.5 6172.8,7100.1 5252.1,5719.4 6447.4,6837.2 5276.9,5690.2 6664.6,6519.4 
					5295.3,5656.2 7326.2,6189.7 5306.8,5618.8 7384.6,5761.5 5310.6,5579.8 7464.5,5169.4 5306.8,5540.7 7304.7,4717.6 
					5295.3,5503.3 6882.7,4402.5 5276.9,5469.3 6447.4,4322.3 5252.1,5440.1 6172.8,4059.4 5222.2,5417 5852.8,3863 5188.5,5401 
					5501.3,3741.6 5152.3,5392.9 				"/>
			</g>
			<g>
				<defs>
					<path id="SVGID_30_" d="M6812.3,6692c-159.9,171-371,291.9-598.9,358.2c-314.7,91.5-649.6,56.4-964.2-17.8
						c-42.7-10.1-85.1-21.8-127-35.4c-201.6-65.8-396.1-182.1-528.2-360.2c-136.9-184.5-208.4-410.4-227.7-643.3
						c-14.6-176.6,22.7-426.4,16.2-602.8c-14.1-385.4,8-745.2,105.8-890c40.4-59.8,498.9-70,1042.3-138.9
						c13.3-1.7,23.2-2.6,31.9-3.5c84.1-8.6,604.9-54.2,1029.7,291c60.8,49.4,158.6,138.5,249.4,274.4
						c225.3,337.5,318.6,794.8,250.8,1201.7C7054.5,6351.1,6953.3,6541.1,6812.3,6692z"/>
				</defs>
				<clipPath id="SVGID_31_">
					<use xlink:href="#SVGID_30_"  style="overflow:visible;"/>
				</clipPath>
				<g class="st44">
					<g>
						
							<linearGradient id="SVGID_32_" gradientUnits="userSpaceOnUse" x1="-2756.0684" y1="-1433.2404" x2="-2749.4111" y2="-1433.2404" gradientTransform="matrix(-1 0 0 -1 2051 3710)">
							<stop  offset="0" style="stop-color:#9F5699"/>
							<stop  offset="1" style="stop-color:#202278"/>
						</linearGradient>
						<rect x="4800.4" y="5091.6" class="st45" width="6.7" height="103.2"/>
						
							<linearGradient id="SVGID_33_" gradientUnits="userSpaceOnUse" x1="-2779.3701" y1="-1424.9193" x2="-2719.4521" y2="-1424.9193" gradientTransform="matrix(-1 0 0 -1 2051 3710)">
							<stop  offset="0" style="stop-color:#9F5699"/>
							<stop  offset="1" style="stop-color:#202278"/>
						</linearGradient>
						<rect x="4770.5" y="5131.6" class="st46" width="59.9" height="6.7"/>
					</g>
					
						<linearGradient id="SVGID_34_" gradientUnits="userSpaceOnUse" x1="-1874.6968" y1="-1047.6503" x2="-3236.6226" y2="-2555.7698" gradientTransform="matrix(-1 0 0 -1 2051 3710)">
						<stop  offset="0" style="stop-color:#4F52FF"/>
						<stop  offset="1" style="stop-color:#4042E2"/>
					</linearGradient>
					<polygon class="st47" points="4803.5,5180.8 5030.1,5414.5 5030.1,5946.1 4570.7,6038 4570.7,5406.7 					"/>
					
						<linearGradient id="SVGID_35_" gradientUnits="userSpaceOnUse" x1="4541.4302" y1="-1593.5753" x2="5065.417" y2="-1593.5753" gradientTransform="matrix(1 0 0 -1 0 3710)">
						<stop  offset="0" style="stop-color:#09005D"/>
						<stop  offset="1" style="stop-color:#1A0F91"/>
					</linearGradient>
					<polygon class="st48" points="5031.4,5437.5 4800.5,5207.6 4578,5437.8 4541.4,5437.8 4800.3,5169.2 5065.4,5438 					"/>
					
						<linearGradient id="SVGID_36_" gradientUnits="userSpaceOnUse" x1="4757.1367" y1="-2080.6875" x2="4850.3428" y2="-2080.6875" gradientTransform="matrix(1 0 0 -1 0 3710)">
						<stop  offset="0" style="stop-color:#09005D"/>
						<stop  offset="1" style="stop-color:#1A0F91"/>
					</linearGradient>
					<path class="st49" d="M4785.4,5687.5h29.8c15.2,0,35.2,10.7,35.2,25.9v180.5h-93.2v-180.5
						C4757.1,5698.2,4770.2,5687.5,4785.4,5687.5z"/>
					<g>
						<path class="st50" d="M4981.8,5489.8c18.8,14.1,21.6,48.6,21.6,48.6v69.1h-22.8h-20.5v-69.1
							C4960.2,5538.5,4963,5503.9,4981.8,5489.8z"/>
						<path class="st50" d="M4893.6,5489.8c18.8,14.1,20,48.6,20,48.6v69.1h-20.7h-19.2v-69.1
							C4873.6,5538.5,4874.8,5503.9,4893.6,5489.8z"/>
					</g>
					<g>
						<path class="st50" d="M4705.5,5489.8c18.8,14.1,21.6,48.6,21.6,48.6v69.1h-19.5h-23.8v-69.1
							C4683.9,5538.5,4686.7,5503.9,4705.5,5489.8z"/>
						<path class="st50" d="M4624,5489.8c18.8,14.1,23.3,48.6,23.3,48.6v69.1h-27.4h-19.2v-69.1
							C4600.7,5538.5,4605.2,5503.9,4624,5489.8z"/>
					</g>
					<g>
						<g>
							<path class="st50" d="M4981.8,5715.7c18.8,14.1,21.6,48.6,21.6,48.6v76.3h-22.8h-20.5v-76.3
								C4960.2,5764.4,4963,5729.9,4981.8,5715.7z"/>
							<path class="st50" d="M4893.6,5715.7c18.8,14.1,20,48.6,20,48.6v76.3h-20.7h-19.2v-76.3
								C4873.6,5764.4,4874.8,5729.9,4893.6,5715.7z"/>
						</g>
						<g>
							<path class="st50" d="M4705.5,5715.7c18.8,14.1,21.6,48.6,21.6,48.6v76.3h-19.5h-23.8v-76.3
								C4683.9,5764.4,4686.7,5729.9,4705.5,5715.7z"/>
							<path class="st50" d="M4624,5715.7c18.8,14.1,23.3,48.6,23.3,48.6v76.3h-27.4h-19.2v-76.3
								C4600.7,5764.4,4605.2,5729.9,4624,5715.7z"/>
						</g>
					</g>
					<circle class="st50" cx="4803.4" cy="5351.8" r="45.5"/>
					
						<linearGradient id="SVGID_37_" gradientUnits="userSpaceOnUse" x1="-2989.082" y1="-1947.535" x2="-2513.0679" y2="-1947.535" gradientTransform="matrix(-1 0 0 -1 2051 3710)">
						<stop  offset="0" style="stop-color:#09005D"/>
						<stop  offset="1" style="stop-color:#1A0F91"/>
					</linearGradient>
					<rect x="4564.1" y="5654.2" class="st51" width="476" height="6.7"/>
					<g>
						
							<linearGradient id="SVGID_38_" gradientUnits="userSpaceOnUse" x1="5190.0396" y1="-1766.2008" x2="5992.9814" y2="-1043.5533" gradientTransform="matrix(1 0 0 -1 0 3710)">
							<stop  offset="0" style="stop-color:#4F52FF"/>
							<stop  offset="1" style="stop-color:#4042E2"/>
						</linearGradient>
						<polygon class="st52" points="5030.1,5962.4 5226.5,5978.6 5226.5,5085 5030.1,5085 						"/>
						
							<linearGradient id="SVGID_39_" gradientUnits="userSpaceOnUse" x1="-3126.3076" y1="-1415.8617" x2="-2911.2964" y2="-927.015" gradientTransform="matrix(-1 0 0 -1 2051 3710)">
							<stop  offset="0" style="stop-color:#09005D"/>
							<stop  offset="1" style="stop-color:#1A0F91"/>
						</linearGradient>
						<polygon class="st53" points="5222,5085 5120.4,4701.3 5029.5,5085 						"/>
						<path class="st50" d="M5239.8,5093.2c0,2.8-2.3,5.1-5.1,5.1h-212.8c-2.8,0-5.1-2.3-5.1-5.1v-3.1c0-2.8,2.3-5.1,5.1-5.1h212.8
							c2.8,0,5.1,2.3,5.1,5.1V5093.2z"/>
						<path class="st50" d="M5239.8,5369.5c0,2.8-2.3,5.1-5.1,5.1h-212.8c-2.8,0-5.1-2.3-5.1-5.1v-3.1c0-2.8,2.3-5.1,5.1-5.1h212.8
							c2.8,0,5.1,2.3,5.1,5.1V5369.5z"/>
						<path class="st50" d="M5239.8,5679.1c0,2.8-2.3,5.1-5.1,5.1h-212.8c-2.8,0-5.1-2.3-5.1-5.1v-3.1c0-2.8,2.3-5.1,5.1-5.1h212.8
							c2.8,0,5.1,2.3,5.1,5.1V5679.1z"/>
						<g>
							<path class="st50" d="M5176.6,5725.1c18.8,14.1,20,48.6,20,48.6v70.2h-21.3h-18.6v-70.2
								C5156.6,5773.8,5157.7,5739.3,5176.6,5725.1z"/>
							<path class="st50" d="M5086.7,5725.1c18.8,14.1,23.3,48.6,23.3,48.6v70.2h-22.6h-24v-70.2
								C5063.4,5773.8,5067.9,5739.3,5086.7,5725.1z"/>
						</g>
						<g>
							<path class="st50" d="M5176.6,5188.6c18.8,14.1,20,48.6,20,48.6v74.1h-21.3h-18.6v-74.1
								C5156.6,5237.2,5157.7,5202.7,5176.6,5188.6z"/>
							<path class="st50" d="M5086.7,5188.6c18.8,14.1,23.3,48.6,23.3,48.6v74.1h-22.6h-24v-74.1
								C5063.4,5237.2,5067.9,5202.7,5086.7,5188.6z"/>
						</g>
						<path class="st50" d="M5196.5,5629.1c0,2.8-2.3,5.1-5.1,5.1h-29.7c-2.8,0-5.1-2.3-5.1-5.1v-229.5c0-2.8,2.3-5.1,5.1-5.1h29.7
							c2.8,0,5.1,2.3,5.1,5.1V5629.1z"/>
						<path class="st50" d="M5113.3,5629.1c0,2.8-2.3,5.1-5.1,5.1h-29.7c-2.8,0-5.1-2.3-5.1-5.1v-229.5c0-2.8,2.3-5.1,5.1-5.1h29.7
							c2.8,0,5.1,2.3,5.1,5.1V5629.1z"/>
					</g>
					<g>
						
							<linearGradient id="SVGID_40_" gradientUnits="userSpaceOnUse" x1="4232.9854" y1="-1999.2051" x2="5498.1357" y2="-1418.1997" gradientTransform="matrix(1 0 0 -1 0 3710)">
							<stop  offset="0" style="stop-color:#4F52FF"/>
							<stop  offset="1" style="stop-color:#4042E2"/>
						</linearGradient>
						<polygon class="st54" points="4377.7,6200.5 4570.7,6010.5 4570.7,5085 4377.7,5085 						"/>
						
							<linearGradient id="SVGID_41_" gradientUnits="userSpaceOnUse" x1="-2473.6765" y1="-1415.8618" x2="-2258.6653" y2="-927.0151" gradientTransform="matrix(-1 0 0 -1 2051 3710)">
							<stop  offset="0" style="stop-color:#09005D"/>
							<stop  offset="1" style="stop-color:#1A0F91"/>
						</linearGradient>
						<polygon class="st55" points="4569.3,5085 4467.7,4701.3 4376.9,5085 						"/>
						<path class="st50" d="M4587.4,5093.2c0,2.8-2.3,5.1-5.1,5.1h-212.8c-2.8,0-5.1-2.3-5.1-5.1v-3.1c0-2.8,2.3-5.1,5.1-5.1h212.8
							c2.8,0,5.1,2.3,5.1,5.1V5093.2z"/>
						<path class="st50" d="M4587.4,5369.5c0,2.8-2.3,5.1-5.1,5.1h-212.8c-2.8,0-5.1-2.3-5.1-5.1v-3.1c0-2.8,2.3-5.1,5.1-5.1h212.8
							c2.8,0,5.1,2.3,5.1,5.1V5369.5z"/>
						<path class="st50" d="M4587.4,5679.1c0,2.8-2.3,5.1-5.1,5.1h-212.8c-2.8,0-5.1-2.3-5.1-5.1v-3.1c0-2.8,2.3-5.1,5.1-5.1h212.8
							c2.8,0,5.1,2.3,5.1,5.1V5679.1z"/>
						<g>
							<path class="st50" d="M4522.5,5725.1c18.8,14.1,21.6,48.6,21.6,48.6v70.2h-21.5h-21.8v-70.2
								C4500.8,5773.8,4503.6,5739.3,4522.5,5725.1z"/>
							<path class="st50" d="M4434.2,5725.1c18.8,14.1,16.6,48.6,16.6,48.6v70.2h-16.1h-17.1v-70.2
								C4417.6,5773.8,4415.4,5739.3,4434.2,5725.1z"/>
						</g>
						<g>
							<path class="st50" d="M4522.5,5188.6c18.8,14.1,21.6,48.6,21.6,48.6v74.1h-21.5h-21.8v-74.1
								C4500.8,5237.2,4503.6,5202.7,4522.5,5188.6z"/>
							<path class="st50" d="M4434.2,5188.6c18.8,14.1,16.6,48.6,16.6,48.6v74.1h-16.1h-17.1v-74.1
								C4417.6,5237.2,4415.4,5202.7,4434.2,5188.6z"/>
						</g>
						<path class="st50" d="M4544.1,5629.1c0,2.8-2.3,5.1-5.1,5.1h-29.7c-2.8,0-5.1-2.3-5.1-5.1v-229.5c0-2.8,2.3-5.1,5.1-5.1h29.7
							c2.8,0,5.1,2.3,5.1,5.1V5629.1z"/>
						<path class="st50" d="M4457.5,5629.1c0,2.8-2.3,5.1-5.1,5.1h-29.7c-2.8,0-5.1-2.3-5.1-5.1v-229.5c0-2.8,2.3-5.1,5.1-5.1h29.7
							c2.8,0,5.1,2.3,5.1,5.1V5629.1z"/>
					</g>
				</g>
			</g>
			<g>
				<defs>
					<path id="SVGID_42_" d="M6812.3,6692c-159.9,171-371,291.9-598.9,358.2c-314.7,91.5-649.6,56.4-964.2-17.8
						c-42.7-10.1-85.1-21.8-127-35.4c-201.6-65.8-396.1-182.1-528.2-360.2c-136.9-184.5-208.4-410.4-227.7-643.3
						c-14.6-176.6,22.7-426.4,16.2-602.8c-14.1-385.4,8-745.2,105.8-890c40.4-59.8,498.9-70,1042.3-138.9
						c13.3-1.7,23.2-2.6,31.9-3.5c84.1-8.6,604.9-54.2,1029.7,291c60.8,49.4,158.6,138.5,249.4,274.4
						c225.3,337.5,318.6,794.8,250.8,1201.7C7054.5,6351.1,6953.3,6541.1,6812.3,6692z"/>
				</defs>
				<clipPath id="SVGID_43_">
					<use xlink:href="#SVGID_42_"  style="overflow:visible;"/>
				</clipPath>
				<path class="st56" d="M6779.4,6487.6c-429.5,54.1-539.7-19.7-747.8-147.6c-207.3-127.4-831.5-434.2-1200.1-439.2
					c-256.5-3.5-508.2,77.8-552.6,359.2c-64.8,411.3-93,713.6-93,713.6c1087.6,290.8,2129.9,303.4,3120.9,0
					C7306.8,6973.6,7021.4,6457.1,6779.4,6487.6z"/>
			</g>
		</g>
		<g class="st57">
			<g>
				<path class="st5" d="M7027.7,4768.3c-3.8-13.9-23.7-13.5-26.9,0.5c-30.7,135.9-122.4,489.7-281.5,683.1
					c-259,314.9-416.6,812.8-227.8,1056.7C6491.6,6508.6,7436.8,6284,7027.7,4768.3z"/>
				<path class="st58" d="M7011.1,4960.8c-0.1,4.4-0.6,8-0.9,11.9l-1.2,11.5l-2.6,23c-1.8,15.3-3.9,30.6-5.9,45.8
					c-4.2,30.5-8.8,61-13.6,91.4c-9.8,60.8-21.3,121.4-33.7,181.7c-12.3,60.4-26.3,120.4-41.6,180.2
					c-15.3,59.7-31.5,119.2-49.6,178.2c-36,117.9-78.4,234.1-128.9,346.7c-25.8,56-53.1,111.4-83.6,165.1
					c-30.8,53.5-64,105.6-100.7,155.1c-0.8,1.1-2.3,1.3-3.4,0.5c-1-0.8-1.3-2.2-0.6-3.3l0,0c34.7-50.7,66.6-103.2,95.9-157.2
					c29.4-53.9,55.7-109.4,80.5-165.6c24.8-56.2,47.2-113.3,68.4-171c21.2-57.6,39.9-116.1,58.4-174.7
					c36.4-117.4,66.5-236.6,93.3-356.6c13.3-60,25.3-120.3,36.3-180.8c5.5-30.2,10.8-60.5,15.7-90.9l7-45.6l3.3-22.8l1.5-11.4
					c0.4-3.7,1-7.8,1.2-11.1l0-0.5c0.1-1.3,1.3-2.3,2.6-2.2C7010.2,4958.4,7011.1,4959.5,7011.1,4960.8z"/>
			</g>
			<g>
				<path class="st59" d="M6565.2,4635.6c-8.2-11.9-26.9-4.9-25.2,9.4c16.3,138.6,47.7,503.2-38,738.9
					c-139.6,383.8-122.4,906.5,137.2,1073.9C6639.2,6457.8,7456.9,5930.6,6565.2,4635.6z"/>
				<path class="st58" d="M6613.7,4822.9c1.4,4.2,2.1,7.8,3.2,11.6l2.8,11.3l5.2,22.6c3.4,15.1,6.6,30.2,9.7,45.3
					c6.2,30.2,12,60.5,17.6,90.9c11,60.7,20.4,121.7,28.8,182.9c8.5,61.1,15.3,122.5,20.8,184c5.4,61.5,10,123.1,12.6,184.8
					c5.3,123.4,4,247.2-6.2,370.4c-5.7,61.5-13,123-23.9,183.8c-11.3,60.8-25.2,121.1-43.4,180.1c-0.4,1.3-1.8,2-3.1,1.6
					c-1.3-0.4-2-1.7-1.7-3l0,0c15.8-59.5,28.5-119.7,38.1-180.4c9.8-60.7,16.1-121.9,20.8-183.2c4.6-61.3,6.8-122.8,7.6-184.3
					c0.8-61.5-1-123-3.1-184.5c-4.8-123-16.1-245.6-30.8-367.8c-7.5-61.1-16.2-122.1-26-182.9c-4.8-30.4-10-60.8-15.5-91.1
					l-8.6-45.4l-4.5-22.6l-2.4-11.3c-0.8-3.7-1.7-7.7-2.6-10.8l-0.1-0.5c-0.4-1.3,0.4-2.7,1.7-3
					C6612,4820.9,6613.3,4821.6,6613.7,4822.9z"/>
			</g>
		</g>
		<g>
			<g>
				<path class="st60" d="M6403.4,6164.6c-0.9-1.2-2.2-4.4-3.6-4.4h-96.2c-1.2,0-2.4,3-3.3,4c-0.9,1-1.3,3.6-1.3,4.9l6,141.5
					c0.1,2.7,2.1,6,4.6,6h59.6c2.1,0,3.9-2.2,4.4-4.4l30.7-141.8C6404.6,6168.9,6404.3,6165.8,6403.4,6164.6z"/>
				
					<linearGradient id="SVGID_44_" gradientUnits="userSpaceOnUse" x1="6480.5913" y1="-2359.7048" x2="6418.4546" y2="-2437.3762" gradientTransform="matrix(1 0 0 -1 0 3710)">
					<stop  offset="0" style="stop-color:#FF928E"/>
					<stop  offset="1" style="stop-color:#FE7062"/>
				</linearGradient>
				<path class="st61" d="M6387,6193.2c-0.9-1.2-2.2,0.2-3.6,0.2H6316c-1.2,0-2.4-1.6-3.3-0.6c-0.9,1-1.3,1.3-1.3,2.6l4.2,105.4
					c23.6,15,49.6-0.3,49.6-0.3l22.6-104.1C6388.2,6195.1,6387.9,6194.4,6387,6193.2z"/>
				<g>
					<path class="st62" d="M6313.5,6173.5c0,3.3,5,106.5,5,106.5h10.5l7.3-106.5H6313.5z"/>
					<polygon class="st62" points="6318,6286.7 6328.3,6286.7 6328.3,6296.6 6320,6296.3 					"/>
				</g>
			</g>
			<g>
				
					<linearGradient id="SVGID_45_" gradientUnits="userSpaceOnUse" x1="4699.5068" y1="-2801.7463" x2="4781.0454" y2="-2801.7463" gradientTransform="matrix(1 0 0 -1 0 3710)">
					<stop  offset="0" style="stop-color:#4F52FF"/>
					<stop  offset="1" style="stop-color:#4042E2"/>
				</linearGradient>
				<path class="st63" d="M4748.8,6606.2c2.2,8,10.5,12.8,18.5,10.6l2.6-0.7c8-2.2,12.8-10.5,10.6-18.5l-48.8-180.3
					c-2.2-8-10.5-12.8-18.5-10.6l-2.6,0.7c-8,2.2-12.8,10.5-10.6,18.5L4748.8,6606.2z"/>
				<g>
					
						<linearGradient id="SVGID_46_" gradientUnits="userSpaceOnUse" x1="4717.4937" y1="-3161.7578" x2="4818.3257" y2="-3161.7578" gradientTransform="matrix(1 0 0 -1 0 3710)">
						<stop  offset="0" style="stop-color:#4F52FF"/>
						<stop  offset="1" style="stop-color:#4042E2"/>
					</linearGradient>
					<path class="st64" d="M4772.9,6629.7c-9.9,14.6-49.2,346.3-55.4,468.8c-0.4,8.3,6.2,15.2,14.5,15.2l0,0
						c7.2,0,13.2-5.2,14.3-12.3l72-461.2L4772.9,6629.7z"/>
					
						<linearGradient id="SVGID_47_" gradientUnits="userSpaceOnUse" x1="5043.8516" y1="-3161.7578" x2="5144.6846" y2="-3161.7578" gradientTransform="matrix(1 0 0 -1 0 3710)">
						<stop  offset="0" style="stop-color:#4F52FF"/>
						<stop  offset="1" style="stop-color:#4042E2"/>
					</linearGradient>
					<path class="st65" d="M5089.3,6629.7c9.9,14.6,49.2,346.3,55.4,468.8c0.4,8.3-6.2,15.2-14.5,15.2l0,0
						c-7.2,0-13.2-5.2-14.3-12.3l-72-461.2L5089.3,6629.7z"/>
					
						<linearGradient id="SVGID_48_" gradientUnits="userSpaceOnUse" x1="4455.4741" y1="-3310.2542" x2="4515.3887" y2="-3022.6667" gradientTransform="matrix(1 0 0 -1 389.7167 3710)">
						<stop  offset="0" style="stop-color:#4F52FF"/>
						<stop  offset="1" style="stop-color:#4042E2"/>
					</linearGradient>
					<path class="st66" d="M4713.4,6603.9l0,3.6c-0.2,26,22.2,47.4,50.2,47.8l332.6,5.7c27.7,0.5,50.7-19.5,52.1-45.1l0.2-3.3
						c1.4-26.7-21.3-49.2-50.1-49.7l-332.8-6C4737.1,6556.3,4713.6,6577.5,4713.4,6603.9z"/>
				</g>
				
					<linearGradient id="SVGID_49_" gradientUnits="userSpaceOnUse" x1="881.5082" y1="-2853.6121" x2="860.1826" y2="-2696.3347" gradientTransform="matrix(-1 0 0 -1 5545.0439 3710)">
					<stop  offset="0" style="stop-color:#4F52FF"/>
					<stop  offset="1" style="stop-color:#4042E2"/>
				</linearGradient>
				<path class="st67" d="M4647.3,6084.7c1.1-30.6,60.7-21.4,78.4-20.7c63.7,2.3,49.2,82.9,49.9,125.7c1,60.1-3.9,121-8.3,180.9
					c-1.4,19-3.5,38-4.2,57c-0.9,25-34.5,28.1-57.5,27.3c-12-0.4-22-9.6-23.3-21.6C4674.1,6361.6,4646.2,6116.5,4647.3,6084.7z"/>
				
					<linearGradient id="SVGID_50_" gradientUnits="userSpaceOnUse" x1="4750.479" y1="-3159.2085" x2="5100" y2="-3159.2085" gradientTransform="matrix(1 0 0 -1 0 3710)">
					<stop  offset="0" style="stop-color:#4F52FF"/>
					<stop  offset="1" style="stop-color:#4042E2"/>
				</linearGradient>
				<path class="st68" d="M5100,6867.9c0-8.5-6.9-15.3-15.3-15.3h-318.8c-8.5,0-15.3,6.9-15.3,15.3v2.6c0,8.5,6.9,15.3,15.3,15.3
					h318.8c8.5,0,15.3-6.9,15.3-15.3L5100,6867.9L5100,6867.9z"/>
			</g>
			<g>
				
					<linearGradient id="SVGID_51_" gradientUnits="userSpaceOnUse" x1="5356.8306" y1="-1888.0461" x2="4663.1982" y2="-2949.8621" gradientTransform="matrix(1 0 0 -1 0 3710)">
					<stop  offset="0" style="stop-color:#09005D"/>
					<stop  offset="1" style="stop-color:#1A0F91"/>
				</linearGradient>
				<path class="st69" d="M5217.1,5631.8c0,0-148.8-14.5-221.1,176.1c-31.4,82.9-85.6,133.9-151.6,189
					c-134.6,112.2-145.4,389.1,77.1,391.8c179.8,2.2,333.2-153.1,302.5-259.6c-30.7-106.4,46.1-435.9,52.6-454.2
					c6.5-18.3-17.8-44.8-52.6-43.4L5217.1,5631.8z"/>
				<g>
					
						<linearGradient id="SVGID_52_" gradientUnits="userSpaceOnUse" x1="5940.272" y1="-2895.1458" x2="4983.2837" y2="-2132.4983" gradientTransform="matrix(1 0 0 -1 0 3710)">
						<stop  offset="0" style="stop-color:#FEBBBA"/>
						<stop  offset="1" style="stop-color:#FF928E"/>
					</linearGradient>
					<path class="st70" d="M5268.6,6027c0,0-20.3-44.6-9.8-75.5c11.4-35,6-71.3,30.2-55.9c24.2,15.4,47.6,84.3,40.1,137.9
						c-2.1,55.6,39.7,249.2,10,261.5c-29.7,12.4-105.4-59.2-120.8-112.3c-15.4-53.1-10.6-103.9-10.6-103.9l35.8-13.7l29.1,109.8
						C5272.6,6175,5267.4,6034.2,5268.6,6027z"/>
					
						<linearGradient id="SVGID_53_" gradientUnits="userSpaceOnUse" x1="5195.3223" y1="-1034.7655" x2="5195.3223" y2="-1733.807" gradientTransform="matrix(1 0 0 -1 0 3710)">
						<stop  offset="0" style="stop-color:#FF928E"/>
						<stop  offset="1" style="stop-color:#FE7062"/>
					</linearGradient>
					<path class="st71" d="M5137.1,5927.9c0,0,53.3-10.2,80.5,31.5c27.2,41.7,36,110.5,36,110.5l-66.8,25.4L5137.1,5927.9z"/>
					<g>
						
							<linearGradient id="SVGID_54_" gradientUnits="userSpaceOnUse" x1="-1701.0803" y1="-3037.0222" x2="-1453.7744" y2="-3037.0222" gradientTransform="matrix(-1 0 0 -1 3702.5229 3710)">
							<stop  offset="0" style="stop-color:#FEBBBA"/>
							<stop  offset="1" style="stop-color:#FF928E"/>
						</linearGradient>
						<path class="st72" d="M5280.8,6438.4c0,0,51.7,8,109.8,46.9c9.1,6.1,14.2,16.8,12.8,27.7c-7,55.1-35.6,233.5-129.9,407.7
							c-5,9.2-6.4,19.9-4.2,30.1l16.4,76.3l30.4,28.5h-78.3l-52.1-141.1l22.3-7c17.3-5.5,29.1-21.4,29.5-39.5l2.6-151.3
							c-2.2-67.4,41.3-113.9,41.3-113.9l-125-6.1L5280.8,6438.4z"/>
						
							<linearGradient id="SVGID_55_" gradientUnits="userSpaceOnUse" x1="-1549.7638" y1="-3198.1663" x2="-1586.1383" y2="-3755.9133" gradientTransform="matrix(-1 0 0 -1 3702.5229 3710)">
							<stop  offset="0" style="stop-color:#4F52FF"/>
							<stop  offset="1" style="stop-color:#4042E2"/>
						</linearGradient>
						<path class="st73" d="M5346.6,7069.4c7.1,9.3-76.7,21.6-119.1,1.2c0,0-58.7-102.2-58.7-154.8c0,0,4.7-10.7,39.2-8.3
							c0,0,19.7,121,40.5,134.6c20.8,13.6,58.3,1.4,58.3,1.4S5336.1,7055.6,5346.6,7069.4z"/>
						
							<linearGradient id="SVGID_56_" gradientUnits="userSpaceOnUse" x1="-1991.4585" y1="-3053.9155" x2="-1469.5933" y2="-3053.9155" gradientTransform="matrix(-1 0 0 -1 3702.5229 3710)">
							<stop  offset="0" style="stop-color:#FEBBBA"/>
							<stop  offset="1" style="stop-color:#FF928E"/>
						</linearGradient>
						<path class="st74" d="M5172.1,6605c0.7-1.1,134.6-16.1,134.6-16.1s-4.4,40.7,9.3,96.8c13.7,56.1,210.4,299,210.4,299
							l-20.6,65.4c63.8,22.2,126.5,25.8,188.2,11.3l-127.8-76.7c0,0-119.6-407.6-192.9-480.3l-134.3-46.5L5172.1,6605z"/>
						
							<linearGradient id="SVGID_57_" gradientUnits="userSpaceOnUse" x1="-1900.7753" y1="-3175.2739" x2="-1937.1503" y2="-3733.0234" gradientTransform="matrix(-1 0 0 -1 3702.5229 3710)">
							<stop  offset="0" style="stop-color:#4F52FF"/>
							<stop  offset="1" style="stop-color:#4042E2"/>
						</linearGradient>
						<path class="st75" d="M5513.6,7028c0,0-22.2,21.5-7.2,45.4c0,0,175.9,31.2,223.6,17c0,0-9.9-22.6-63.7-48.4l4,3
							c5,3.9,2.1,11.9-4.2,11.5C5630.6,7054.6,5557.3,7048.1,5513.6,7028z"/>
						
							<linearGradient id="SVGID_58_" gradientUnits="userSpaceOnUse" x1="-1655.7446" y1="-2768.4456" x2="-1084.8109" y2="-2768.4456" gradientTransform="matrix(-1 0 0 -1 3702.5229 3710)">
							<stop  offset="0" style="stop-color:#09005D"/>
							<stop  offset="1" style="stop-color:#1A0F91"/>
						</linearGradient>
						<path class="st76" d="M4871.7,6348.4c0,0-77.2,114.8-83.5,167.1c-6.3,52.4,21.1,73.6,102.1,77.1c81,3.5,311.5,15.8,311.5,15.8
							l156.4-150.6c0,0-250.5-82.7-285.5-96.3C5037.8,6348,4871.7,6348.4,4871.7,6348.4z"/>
					</g>
					<path class="st0" d="M4799.2,6238c-0.3,0-0.6-0.2-0.8-0.5c-25.6-55.1,0.1-124.6,17.7-161.1c16.1-33.4,40.5-61.9,60-83
						c0.3-0.3,0.8-0.4,1.2,0c0.3,0.3,0.4,0.8,0,1.2c-19.4,21-43.7,49.4-59.7,82.6c-40.7,84.5-28.5,136.4-17.7,159.7
						c0.2,0.4,0,0.9-0.4,1.1C4799.4,6238,4799.3,6238,4799.2,6238z"/>
					
						<linearGradient id="SVGID_59_" gradientUnits="userSpaceOnUse" x1="5052.2021" y1="-1034.765" x2="5052.2021" y2="-1733.809" gradientTransform="matrix(1 0 0 -1 0 3710)">
						<stop  offset="0" style="stop-color:#FF928E"/>
						<stop  offset="1" style="stop-color:#FE7062"/>
					</linearGradient>
					<path class="st77" d="M5084.2,5912c0,0-126.8,68.9-145.5,211c-18.7,142.1-77.8,240.3-77.8,240.3H5058
						c0,0,197.1-191.2,185-255.1c-12-63.9-46.4-172-59.9-180C5169.6,5920.1,5084.2,5912,5084.2,5912z"/>
					
						<linearGradient id="SVGID_60_" gradientUnits="userSpaceOnUse" x1="-1412.3813" y1="-2338.1353" x2="-1445.3213" y2="-2126.771" gradientTransform="matrix(-1 0 0 -1 3702.5229 3710)">
						<stop  offset="0" style="stop-color:#FEBBBA"/>
						<stop  offset="1" style="stop-color:#FF928E"/>
					</linearGradient>
					<path class="st78" d="M5194.5,5840.2c-1,3.3-25.6,84.8-27.5,86.5c-1.9,1.7-53.9,4.5-78.4-12.2l60.7-118.8L5194.5,5840.2z"/>
					
						<linearGradient id="SVGID_61_" gradientUnits="userSpaceOnUse" x1="-4366.8389" y1="-1861.9631" x2="-4151.2407" y2="-2008.4071" gradientTransform="matrix(-0.7225 -0.6914 0.6914 -0.7225 3407.5359 1439.1433)">
						<stop  offset="0" style="stop-color:#FEBBBA"/>
						<stop  offset="1" style="stop-color:#FF928E"/>
					</linearGradient>
					<path class="st79" d="M5260.3,5716.3c0,0,19.1,44.2-3.4,111.5c-22.5,67.2-59.3,73-82.6,56.4c-23.3-16.6-53.4-46.4-57.1-107.3
						C5113.4,5716,5234,5660.3,5260.3,5716.3z"/>
					
						<linearGradient id="SVGID_62_" gradientUnits="userSpaceOnUse" x1="7051.5122" y1="35.9739" x2="6357.8906" y2="-1025.8264" gradientTransform="matrix(0.887 0.4618 0.4618 -0.887 -901.022 2397.095)">
						<stop  offset="0" style="stop-color:#09005D"/>
						<stop  offset="1" style="stop-color:#1A0F91"/>
					</linearGradient>
					<path class="st80" d="M5162.6,5772.9c0,0,40.7-91,101.6-34.2l4.7,23.4c0,0,58-16.5,39-69.1c-19-52.6-75.6-78.3-137.7-44.3
						c-62.1,34-96,64.2-92.7,112c3.3,47.9,39.2,31.5,39.2,31.5s6.9-35.2,23.8-41.4c16.9-6.2,16.5,20.4,16.5,20.4L5162.6,5772.9z"/>
					
						<linearGradient id="SVGID_63_" gradientUnits="userSpaceOnUse" x1="-4366.4639" y1="-1856.0492" x2="-4150.8652" y2="-2002.4935" gradientTransform="matrix(-0.7225 -0.6914 0.6914 -0.7225 3407.5359 1439.1433)">
						<stop  offset="0" style="stop-color:#FEBBBA"/>
						<stop  offset="1" style="stop-color:#FF928E"/>
					</linearGradient>
					<path class="st81" d="M5148.6,5792.2c0,0,21.2-46.6-8.4-48.4c-29.6-1.7-17.6,45-11.7,62L5148.6,5792.2z"/>
					<path class="st0" d="M5291.6,5730c-0.1,0-0.3,0-0.4-0.1c-0.4-0.2-0.6-0.7-0.3-1.1c6.1-11.2,7.5-22.4,4.1-33.2
						c-7.4-23.5-35.1-37.6-35.4-37.7c-0.4-0.2-0.6-0.7-0.4-1.1c0.2-0.4,0.7-0.6,1.1-0.4c0.3,0.1,28.6,14.6,36.2,38.7
						c3.5,11.2,2.1,22.8-4.2,34.5C5292.2,5729.8,5291.9,5730,5291.6,5730z"/>
					
						<linearGradient id="SVGID_64_" gradientUnits="userSpaceOnUse" x1="5353.9824" y1="-2337.7" x2="5907.5649" y2="-1860.6774" gradientTransform="matrix(1 0 0 -1 0 3710)">
						<stop  offset="0" style="stop-color:#FEBBBA"/>
						<stop  offset="1" style="stop-color:#FF928E"/>
					</linearGradient>
					<path class="st82" d="M5134.8,6094.4c0,0,94.6,114.2,115.1,101.5c20.5-12.7,31.1-159.5,31.5-183.3c0,0-24.6-50.1-6.6-74.2
						c0,0,3.1-74.9,26.3-60.4s48.7,52.8,46.9,96.3c-1.8,43.5-20.9,63-22.9,71.7c-2,8.6,47.7,229.2-15.5,263.5
						c-63.2,34.2-259.5-143-259.5-143L5134.8,6094.4z"/>
					
						<linearGradient id="SVGID_65_" gradientUnits="userSpaceOnUse" x1="5072.1084" y1="-1034.7645" x2="5072.1084" y2="-1733.8065" gradientTransform="matrix(1 0 0 -1 0 3710)">
						<stop  offset="0" style="stop-color:#FF928E"/>
						<stop  offset="1" style="stop-color:#FE7062"/>
					</linearGradient>
					<path class="st83" d="M5171.9,6107.7c0,0-113.5-177.2-181.1-87.1c-67.7,90.1,72.6,172.5,72.6,172.5L5171.9,6107.7z"/>
					<g>
						
							<linearGradient id="SVGID_66_" gradientUnits="userSpaceOnUse" x1="5138.8755" y1="-1034.766" x2="5138.8755" y2="-1733.8075" gradientTransform="matrix(1 0 0 -1 0 3710)">
							<stop  offset="0" style="stop-color:#FF928E"/>
							<stop  offset="1" style="stop-color:#FE7062"/>
						</linearGradient>
						<path class="st84" d="M5166.6,6107.8c-0.3,0.1-0.6,0.1-0.9,0c-1-0.3-1.5-1.2-1.3-2.2c1.5-5.5-4.3-12.8-6.6-15.1l-47.8-54.8
							c-0.6-0.7-0.6-1.9,0.2-2.5c0.7-0.6,1.9-0.6,2.5,0.2l47.7,54.7c0.3,0.3,9.8,9.9,7.5,18.5
							C5167.7,6107.2,5167.2,6107.7,5166.6,6107.8z"/>
					</g>
				</g>
			</g>
			<g>
				
					<linearGradient id="SVGID_67_" gradientUnits="userSpaceOnUse" x1="7010.7715" y1="-2794.5818" x2="7093.9365" y2="-2794.5818" gradientTransform="matrix(1 0 0 -1 0 3710)">
					<stop  offset="0" style="stop-color:#4F52FF"/>
					<stop  offset="1" style="stop-color:#4042E2"/>
				</linearGradient>
				<path class="st85" d="M7043.7,6600.9c-2.2,8.2-10.7,13.1-18.9,10.8l-2.7-0.7c-8.2-2.2-13.1-10.7-10.8-18.9l49.7-183.9
					c2.2-8.2,10.7-13.1,18.9-10.8l2.7,0.7c8.2,2.2,13.1,10.7,10.8,18.9L7043.7,6600.9z"/>
				<g>
					
						<linearGradient id="SVGID_68_" gradientUnits="userSpaceOnUse" x1="6972.75" y1="-3161.762" x2="7075.5908" y2="-3161.762" gradientTransform="matrix(1 0 0 -1 0 3710)">
						<stop  offset="0" style="stop-color:#4F52FF"/>
						<stop  offset="1" style="stop-color:#4042E2"/>
					</linearGradient>
					<path class="st86" d="M7019.1,6624.9c10.1,14.9,50.2,353.2,56.5,478.2c0.4,8.4-6.3,15.5-14.8,15.5l0,0
						c-7.3,0-13.5-5.3-14.6-12.5l-73.4-470.4L7019.1,6624.9z"/>
					
						<linearGradient id="SVGID_69_" gradientUnits="userSpaceOnUse" x1="6639.8921" y1="-3161.762" x2="6742.7319" y2="-3161.762" gradientTransform="matrix(1 0 0 -1 0 3710)">
						<stop  offset="0" style="stop-color:#4F52FF"/>
						<stop  offset="1" style="stop-color:#4042E2"/>
					</linearGradient>
					<path class="st87" d="M6696.4,6624.9c-10.1,14.9-50.2,353.2-56.5,478.2c-0.4,8.4,6.3,15.5,14.8,15.5l0,0
						c7.3,0,13.5-5.3,14.6-12.5l73.4-470.4L6696.4,6624.9z"/>
					
						<linearGradient id="SVGID_70_" gradientUnits="userSpaceOnUse" x1="-1790.0233" y1="-3313.2156" x2="-1728.9159" y2="-3019.9011" gradientTransform="matrix(-1 0 0 -1 5155.3271 3710)">
						<stop  offset="0" style="stop-color:#4F52FF"/>
						<stop  offset="1" style="stop-color:#4042E2"/>
					</linearGradient>
					<path class="st88" d="M7079.8,6598.5l0,3.7c0.2,26.5-22.6,48.3-51.2,48.8l-339.3,5.8c-28.2,0.5-51.7-19.9-53.1-46l-0.2-3.4
						c-1.4-27.2,21.7-50.2,51.1-50.7l339.4-6.1C7055.6,6550,7079.5,6571.6,7079.8,6598.5z"/>
				</g>
				
					<linearGradient id="SVGID_71_" gradientUnits="userSpaceOnUse" x1="7130.6216" y1="-2847.48" x2="7108.8716" y2="-2687.0713" gradientTransform="matrix(1 0 0 -1 0 3710)">
					<stop  offset="0" style="stop-color:#4F52FF"/>
					<stop  offset="1" style="stop-color:#4042E2"/>
				</linearGradient>
				<path class="st89" d="M7147.2,6069.1c-1.1-31.2-61.9-21.8-80-21.1c-64.9,2.3-50.2,84.6-50.9,128.2c-1,61.3,4,123.4,8.5,184.5
					c1.4,19.4,3.6,38.7,4.3,58.2c0.9,25.5,35.2,28.7,58.6,27.9c12.3-0.4,22.4-9.8,23.8-22
					C7119.9,6351.5,7148.3,6101.5,7147.2,6069.1z"/>
				
					<linearGradient id="SVGID_72_" gradientUnits="userSpaceOnUse" x1="6674.5093" y1="-3159.2083" x2="7037.3452" y2="-3159.2083" gradientTransform="matrix(1 0 0 -1 0 3710)">
					<stop  offset="0" style="stop-color:#4F52FF"/>
					<stop  offset="1" style="stop-color:#4042E2"/>
				</linearGradient>
				<path class="st90" d="M7037.3,6870.4c0,8.5-6.9,15.5-15.5,15.5H6690c-8.5,0-15.5-6.9-15.5-15.5v-2.4c0-8.5,6.9-15.5,15.5-15.5
					h331.9c8.5,0,15.5,6.9,15.5,15.5V6870.4z"/>
			</g>
			<g>
				<g>
					
						<linearGradient id="SVGID_73_" gradientUnits="userSpaceOnUse" x1="6521.1743" y1="-1034.7635" x2="6521.1743" y2="-1733.8055" gradientTransform="matrix(1 0 0 -1 0 3710)">
						<stop  offset="0" style="stop-color:#FF928E"/>
						<stop  offset="1" style="stop-color:#FE7062"/>
					</linearGradient>
					<path class="st91" d="M6674.7,5888.3c0,0-85.4,47.9-123.4,167.5c-38,119.5-36.6,164.8-57.9,142.8
						c-21.3-22-77.9-226.9-77.9-226.9l-53.4,16.7c0,0,63.5,327.1,149.1,308.4c85.6-18.6,169-189.9,169-189.9L6674.7,5888.3z"/>
					
						<linearGradient id="SVGID_74_" gradientUnits="userSpaceOnUse" x1="-2161.0823" y1="-424.2913" x2="-2204.9109" y2="-677.7346" gradientTransform="matrix(-0.983 -0.1834 0.1834 -0.983 4343.4854 4014.6619)">
						<stop  offset="0" style="stop-color:#FEBBBA"/>
						<stop  offset="1" style="stop-color:#FF928E"/>
					</linearGradient>
					<path class="st92" d="M6417.1,5979.1c0,0,2.8-26,0.7-47.5c-2.1-21.4-23.7-54.3-25.7-43.7c-2,10.6-1.8,9.5-1.8,9.5
						s-26-68.5-40.1-58.2c-14,10.3-31.7,54.8-0.1,137.8c1.6,4.1,14.7,28.5,14.7,28.5L6417.1,5979.1z"/>
					
						<linearGradient id="SVGID_75_" gradientUnits="userSpaceOnUse" x1="-1318.2704" y1="-3217.8254" x2="-1254.9606" y2="-3058.175" gradientTransform="matrix(-0.9793 0.2022 -0.2022 -0.9793 4785.522 3048.8599)">
						<stop  offset="0" style="stop-color:#FEBBBA"/>
						<stop  offset="1" style="stop-color:#FF928E"/>
					</linearGradient>
					<path class="st93" d="M6674.3,5785c0,0,61.3,70.1,115,99.1l-114.5,105.8c0,0-91.8-199.2-145.6-213.8L6674.3,5785z"/>
					
						<linearGradient id="SVGID_76_" gradientUnits="userSpaceOnUse" x1="-2799.905" y1="-2213.4353" x2="-2799.905" y2="-2912.4758" gradientTransform="matrix(-0.983 -0.1834 0.1834 -0.983 4343.4854 4014.6619)">
						<stop  offset="0" style="stop-color:#FF928E"/>
						<stop  offset="1" style="stop-color:#FE7062"/>
					</linearGradient>
					<path class="st94" d="M7014.4,6461.4c0,0-118.8,6.5-222-41.4c0,0-113.7-232.3-162-298.7c0,0-160.1,38.7-87.1-69.3
						c73-108,102.9-154.3,155.1-176.3c32.5-13.7,52.3-23.5,62.5-29c5.6-3,12.5-2.2,17.2,2.1
						C6821.8,5888.1,7024.2,6090.3,7014.4,6461.4z"/>
					
						<linearGradient id="SVGID_77_" gradientUnits="userSpaceOnUse" x1="-2497.5806" y1="-2213.4343" x2="-2497.5806" y2="-2912.4783" gradientTransform="matrix(-0.983 -0.1834 0.1834 -0.983 4343.4854 4014.6619)">
						<stop  offset="0" style="stop-color:#FF928E"/>
						<stop  offset="1" style="stop-color:#FE7062"/>
					</linearGradient>
					<path class="st95" d="M6674.7,5888.3c0,0-114.2,79.3-172,227c0,0-35.9,86.2-45.8,76.2s-61.5-194.1-57.7-230.8l-49.3,32.1
						c0,0,9.2,323.7,112.6,310.7c103.4-13,193.6-182.6,193.6-182.6L6674.7,5888.3z"/>
					
						<linearGradient id="SVGID_78_" gradientUnits="userSpaceOnUse" x1="-2677.0078" y1="-2213.4329" x2="-2677.0078" y2="-2912.4744" gradientTransform="matrix(-0.983 -0.1834 0.1834 -0.983 4343.4854 4014.6619)">
						<stop  offset="0" style="stop-color:#FF928E"/>
						<stop  offset="1" style="stop-color:#FE7062"/>
					</linearGradient>
					<path class="st96" d="M6654.7,6122.6c1.3,0.1,2.5-0.3,3.5-1.3c31.9-34.1,51.6-73.2,52.4-74.9c1-2.1,0.2-4.6-1.9-5.6
						c-2.1-1-4.6-0.2-5.6,1.9c-0.2,0.4-20,39.7-51,72.9c-1.6,1.7-1.5,4.4,0.2,5.9C6652.9,6122.1,6653.8,6122.5,6654.7,6122.6z"/>
					
						<linearGradient id="SVGID_79_" gradientUnits="userSpaceOnUse" x1="-2232.6426" y1="-1241.4954" x2="-2390.3481" y2="-1662.95" gradientTransform="matrix(-0.983 -0.1834 0.1834 -0.983 4343.4854 4014.6619)">
						<stop  offset="0" style="stop-color:#FEBBBA"/>
						<stop  offset="1" style="stop-color:#FF928E"/>
					</linearGradient>
					<path class="st97" d="M6399.1,5966.9c0,0,5.6-26.8-1.3-43.8c-6.9-16.9-11.3-45-16.7-32.4c-5.4,12.6-0.5,2.4-0.5,2.4
						s-15.5-60.4-31.6-47.3c-16.1,13.2-39.3,40.1-26.7,88.9c12.6,48.8,27.1,60.6,27.1,60.6L6399.1,5966.9z"/>
					<g>
						
							<linearGradient id="SVGID_80_" gradientUnits="userSpaceOnUse" x1="-9453.8076" y1="1655.1219" x2="-9516.5664" y2="1862.1165" gradientTransform="matrix(-0.9993 3.330000e-02 -3.330000e-02 -0.9993 -2834.5918 7820.6978)">
							<stop  offset="0" style="stop-color:#FEBBBA"/>
							<stop  offset="1" style="stop-color:#FF928E"/>
						</linearGradient>
						<path class="st98" d="M6489.9,5734.5c0,0,34.9,124.4,72.4,152.4c37.5,28,89.5-26.3,111.1-98.7l-51.9-120.8L6489.9,5734.5z"/>
						
							<linearGradient id="SVGID_81_" gradientUnits="userSpaceOnUse" x1="-9510.4277" y1="2015.7786" x2="-9457.9307" y2="1716.3479" gradientTransform="matrix(-0.9993 3.330000e-02 -3.330000e-02 -0.9993 -2834.5918 7820.6978)">
							<stop  offset="0" style="stop-color:#09005D"/>
							<stop  offset="1" style="stop-color:#1A0F91"/>
						</linearGradient>
						<path class="st99" d="M6629.6,5746.5c-2.7,1-5.7-0.7-6.2-3.6c-1.6-8.7-5.5-26-12.5-37.6c0,0,3.1-12.6-31.3,7.4
							c-34.3,20-85.9,49.4-117.4,34c-30.7-15-63.9-94.8,16.3-82.5c3,0.5,5.8-2,5.4-5.1c-1.4-13.2-1.1-43.8,29.5-54.7
							c28.6-10.1,44.9,2.4,51.7,10.1c2,2.3,5.6,2.1,7.3-0.4c8.3-11.6,31-36.5,66.2-22.4c29,11.6,34,29.1,33.9,40
							c0,3.6,3.6,5.8,6.8,4.2c8.6-4.3,22.6-6.9,36.6,9.6c19.4,22.7-6.5,43.8-14.3,49.4c-1.3,0.9-2,2.4-2,4
							c0.3,12.1,0.2,65.1-25.3,95.9c-2.2,2.7-6.5,2-7.9-1.1l-22.1-48c-1-2.2-3.6-3.3-5.9-2.5L6629.6,5746.5z"/>
						
							<linearGradient id="SVGID_82_" gradientUnits="userSpaceOnUse" x1="-9517.9629" y1="1656.0861" x2="-9574.4277" y2="1842.3214" gradientTransform="matrix(-0.9993 3.330000e-02 -3.330000e-02 -0.9993 -2834.5918 7820.6978)">
							<stop  offset="0" style="stop-color:#FEBBBA"/>
							<stop  offset="1" style="stop-color:#FF928E"/>
						</linearGradient>
						<path class="st100" d="M6629.5,5756.4c0,0,10.8-51.2,30.3-35.4c19.5,15.9-3.2,53-24.7,60.6L6629.5,5756.4z"/>
					</g>
				</g>
				<g>
					
						<linearGradient id="SVGID_83_" gradientUnits="userSpaceOnUse" x1="-1354.8789" y1="-3361.7031" x2="-1108.864" y2="-3361.7031" gradientTransform="matrix(-1 0 0 -1 5155.3271 3710)">
						<stop  offset="0" style="stop-color:#4F52FF"/>
						<stop  offset="1" style="stop-color:#4042E2"/>
					</linearGradient>
					<path class="st101" d="M6411.3,7072.7c60.3,0,87-5.2,98.9-9.9c-2.3,9.9-11.1,17.7-22.3,17.7h-213.4c-7.2,0-11.7-6.9-10-13.1
						C6288.9,7069.4,6340.5,7072.7,6411.3,7072.7z"/>
					
						<linearGradient id="SVGID_84_" gradientUnits="userSpaceOnUse" x1="-1165.3351" y1="-2888.6497" x2="-1232.5524" y2="-3353.0608" gradientTransform="matrix(-1 0 0 -1 5155.3271 3710)">
						<stop  offset="0" style="stop-color:#4F52FF"/>
						<stop  offset="1" style="stop-color:#4042E2"/>
					</linearGradient>
					<path class="st102" d="M6264.6,7067.5c0.3-1.3,0.9-2.5,1.7-3.6c16.3-20.8,48.9-53.3,93.3-52.7c65.1,0.9,87.7,8,138.3,0.4
						l11.9,39.5c1.2,4,1.2,8.1,0.4,11.8c-11.9,4.7-38.6,9.9-98.9,9.9C6340.5,7072.7,6288.9,7069.4,6264.6,7067.5z"/>
				</g>
				
					<linearGradient id="SVGID_85_" gradientUnits="userSpaceOnUse" x1="-1342.5898" y1="-3287.5667" x2="-1276.0259" y2="-3287.5667" gradientTransform="matrix(-1 0 0 -1 5155.3271 3710)">
					<stop  offset="0" style="stop-color:#FEBBBA"/>
					<stop  offset="1" style="stop-color:#FF928E"/>
				</linearGradient>
				<path class="st103" d="M6483.3,6968.9l14.6,49.8c0,0-32.4,14.8-61,2.9l-5.6-43.1L6483.3,6968.9z"/>
				<g>
					
						<linearGradient id="SVGID_86_" gradientUnits="userSpaceOnUse" x1="-969.0181" y1="-3312.9495" x2="-770.39" y2="-3312.9495" gradientTransform="matrix(-1 0 0 -1 5155.3271 3710)">
						<stop  offset="0" style="stop-color:#4F52FF"/>
						<stop  offset="1" style="stop-color:#4042E2"/>
					</linearGradient>
					<path class="st104" d="M6041.1,7041.4c47,37.8,71,50.5,83.3,54.3c-8,6.2-19.7,6.8-28.4-0.2l-166.3-133.6
						c-5.6-4.5-4.8-12.7,0.4-16.4C5947.7,6962.1,5985.9,6997.1,6041.1,7041.4z"/>
					
						<linearGradient id="SVGID_87_" gradientUnits="userSpaceOnUse" x1="-832.3931" y1="-2936.8376" x2="-899.6101" y2="-3401.2488" gradientTransform="matrix(-1 0 0 -1 5155.3271 3710)">
						<stop  offset="0" style="stop-color:#4F52FF"/>
						<stop  offset="1" style="stop-color:#4042E2"/>
					</linearGradient>
					<path class="st105" d="M5930,6945.4c1.1-0.8,2.2-1.4,3.6-1.7c25.6-5.9,71.4-10.8,105.6,17.5c50.1,41.5,63.4,61.1,107.6,86.9
						l-15.3,38.1c-1.6,3.9-4.1,7-7.1,9.4c-12.2-3.8-36.3-16.5-83.3-54.3C5985.9,6997.1,5947.7,6962.1,5930,6945.4z"/>
				</g>
				
					<linearGradient id="SVGID_88_" gradientUnits="userSpaceOnUse" x1="-1710.6548" y1="-2987.2126" x2="-1183.7271" y2="-2987.2126" gradientTransform="matrix(-1 0 0 -1 5155.3271 3710)">
					<stop  offset="0" style="stop-color:#09005D"/>
					<stop  offset="1" style="stop-color:#1A0F91"/>
				</linearGradient>
				<path class="st106" d="M6796.5,6401.6c0,0-361.1,29.5-435.2,64.4c-74.1,34.9,60.4,523.6,60.4,523.6s20.2,9.7,65-4.2
					c0,0-46-360.7-11.8-438.9l391-63.9L6796.5,6401.6z"/>
				
					<linearGradient id="SVGID_89_" gradientUnits="userSpaceOnUse" x1="-1027.312" y1="-3293.1682" x2="-947.8442" y2="-3293.1682" gradientTransform="matrix(-1 0 0 -1 5155.3271 3710)">
					<stop  offset="0" style="stop-color:#FEBBBA"/>
					<stop  offset="1" style="stop-color:#FF928E"/>
				</linearGradient>
				<path class="st107" d="M6182.6,6979.5c-3.4,3.1-35.9,68.7-35.9,68.7s-36.2-7.8-43.6-30.7l32.6-59.2L6182.6,6979.5z"/>
				
					<linearGradient id="SVGID_90_" gradientUnits="userSpaceOnUse" x1="-1232.0195" y1="-2767.6736" x2="-1810.499" y2="-3423.5557" gradientTransform="matrix(-1 0 0 -1 5155.3271 3710)">
					<stop  offset="0" style="stop-color:#09005D"/>
					<stop  offset="1" style="stop-color:#1A0F91"/>
				</linearGradient>
				<path class="st108" d="M7013.9,6398.6c0,0,11.8,28.3,11.3,65.9c-0.7,52-42.5,94.3-94.5,96.9l-426.9,19.5
					c-9,0.4-16.6,6.6-18.9,15.4c-10,38.8-59.1,157.9-298.7,395.7c-6.4,6.3-16.3,7.4-23.9,2.6l-34.1-21.6c-3.6-2.3-4.7-7-2.6-10.6
					l248.5-424.4c13.1-21.5,34-37.1,58.4-43.3l363.8-93L7013.9,6398.6z"/>
			</g>
			<g>
				<g>
					
						<linearGradient id="SVGID_91_" gradientUnits="userSpaceOnUse" x1="-407.8517" y1="-2886.4595" x2="-374.3228" y2="-2886.4595" gradientTransform="matrix(-0.9995 3.100000e-02 -3.100000e-02 -0.9995 5275.0923 3534.4641)">
						<stop  offset="0" style="stop-color:#FDF53F"/>
						<stop  offset="0.6645" style="stop-color:#E57A58"/>
						<stop  offset="1" style="stop-color:#D93C65"/>
					</linearGradient>
					<path class="st109" d="M5741.7,6503.1c0.3,8.5,7.4,15.2,15.9,14.9l2.8-0.1c8.5-0.3,15.2-7.4,14.9-15.9l-5.9-190.4
						c-0.3-8.5-7.4-15.2-15.9-14.9l-2.8,0.1c-8.5,0.3-15.2,7.4-14.9,15.9L5741.7,6503.1z"/>
					
						<linearGradient id="SVGID_92_" gradientUnits="userSpaceOnUse" x1="-555.6253" y1="-2891.0427" x2="-522.0964" y2="-2891.0427" gradientTransform="matrix(-0.9995 3.100000e-02 -3.100000e-02 -0.9995 5275.0923 3534.4641)">
						<stop  offset="0" style="stop-color:#FDF53F"/>
						<stop  offset="0.6645" style="stop-color:#E57A58"/>
						<stop  offset="1" style="stop-color:#D93C65"/>
					</linearGradient>
					<path class="st110" d="M5889.5,6503.1c0.3,8.5,7.4,15.2,15.9,14.9l2.8-0.1c8.5-0.3,15.2-7.4,14.9-15.9l-5.9-190.4
						c-0.3-8.5-7.4-15.2-15.9-14.9l-2.8,0.1c-8.5,0.3-15.2,7.4-14.9,15.9L5889.5,6503.1z"/>
					<g>
						
							<linearGradient id="SVGID_93_" gradientUnits="userSpaceOnUse" x1="5409.5137" y1="-2753.5029" x2="5061.2041" y2="-3541.7837" gradientTransform="matrix(1 0 0 -1 389.7167 3710)">
							<stop  offset="0" style="stop-color:#FDF53F"/>
							<stop  offset="0.6645" style="stop-color:#E57A58"/>
							<stop  offset="1" style="stop-color:#D93C65"/>
						</linearGradient>
						<path class="st111" d="M5677.9,6527.7c-10.1,14.9-50.2,353.2-56.5,478.2c-0.4,8.4,6.3,15.5,14.8,15.5l0,0
							c7.3,0,13.5-5.3,14.6-12.5l73.4-470.4L5677.9,6527.7z"/>
						
							<linearGradient id="SVGID_94_" gradientUnits="userSpaceOnUse" x1="5697.0146" y1="-2880.5376" x2="5348.7041" y2="-3668.8203" gradientTransform="matrix(1 0 0 -1 389.7167 3710)">
							<stop  offset="0" style="stop-color:#FDF53F"/>
							<stop  offset="0.6645" style="stop-color:#E57A58"/>
							<stop  offset="1" style="stop-color:#D93C65"/>
						</linearGradient>
						<path class="st112" d="M6000.5,6527.7c10.1,14.9,50.2,353.2,56.5,478.2c0.4,8.4-6.3,15.5-14.8,15.5l0,0
							c-7.3,0-13.5-5.3-14.6-12.5l-73.4-470.4L6000.5,6527.7z"/>
						
							<linearGradient id="SVGID_95_" gradientUnits="userSpaceOnUse" x1="5361.8682" y1="-3215.991" x2="5422.9756" y2="-2922.6765" gradientTransform="matrix(1 0 0 -1 389.7167 3710)">
							<stop  offset="0" style="stop-color:#FDF53F"/>
							<stop  offset="0.6645" style="stop-color:#E57A58"/>
							<stop  offset="1" style="stop-color:#D93C65"/>
						</linearGradient>
						<path class="st113" d="M5617.2,6501.3l0,3.7c-0.2,26.5,22.6,48.3,51.2,48.8l339.3,5.8c28.2,0.5,51.7-19.9,53.1-46l0.2-3.4
							c1.4-27.2-21.7-50.2-51.1-50.7l-339.4-6.1C5641.3,6452.8,5617.4,6474.4,5617.2,6501.3z"/>
					</g>
					
						<linearGradient id="SVGID_96_" gradientUnits="userSpaceOnUse" x1="-307.5191" y1="-2986.6641" x2="-249.4126" y2="-3263.7854" gradientTransform="matrix(-1 0 0 -1 5545.0439 3710)">
						<stop  offset="0" style="stop-color:#FDF53F"/>
						<stop  offset="0.6645" style="stop-color:#E57A58"/>
						<stop  offset="1" style="stop-color:#D93C65"/>
					</linearGradient>
					<path class="st114" d="M6018.7,6768.2c0-8.5-6.9-15.5-15.5-15.5h-331.9c-8.5,0-15.5,6.9-15.5,15.5v2.4
						c0,8.5,6.9,15.5,15.5,15.5h331.9c8.5,0,15.5-6.9,15.5-15.5V6768.2z"/>
					
						<linearGradient id="SVGID_97_" gradientUnits="userSpaceOnUse" x1="5867.6333" y1="-2773.5789" x2="5845.189" y2="-2608.052" gradientTransform="matrix(1 0 0 -1 0 3710)">
						<stop  offset="0" style="stop-color:#4F52FF"/>
						<stop  offset="1" style="stop-color:#4042E2"/>
					</linearGradient>
					<path class="st115" d="M6032.1,6067.2c0-53.4-43.3-96.8-96.8-96.8h-222.6c-53.4,0-96.8,43.3-96.8,96.8v189.3
						c0,53.4,43.3,96.8,96.8,96.8h222.6c53.4,0,96.8-43.3,96.8-96.8V6067.2z"/>
				</g>
				<g>
					
						<linearGradient id="SVGID_98_" gradientUnits="userSpaceOnUse" x1="3195.9231" y1="-3502.9912" x2="3225.1758" y2="-3631.0527" gradientTransform="matrix(-0.9499 0.3125 -0.3125 -0.9499 7579.7422 2359.7864)">
						<stop  offset="0" style="stop-color:#09005D"/>
						<stop  offset="1" style="stop-color:#1A0F91"/>
					</linearGradient>
					<path class="st116" d="M5707.9,6745.7l-13.2-45.5c0,0-17.4-12.8-28.5-6.5c-11.1,6.3-65.3,74.3-79.6,86.9
						C5572.3,6793.3,5620.4,6798,5707.9,6745.7z"/>
					
						<linearGradient id="SVGID_99_" gradientUnits="userSpaceOnUse" x1="5831.4536" y1="-2837.4812" x2="5323.1704" y2="-2703.4719" gradientTransform="matrix(1 0 0 -1 0 3710)">
						<stop  offset="0" style="stop-color:#4F52FF"/>
						<stop  offset="1" style="stop-color:#4042E2"/>
					</linearGradient>
					<path class="st117" d="M5861.6,6339.8c0,0,18.8,120-95.9,136.6h-97.4c0,0,59.2,149.8,37.3,236.3h-65
						c0,0-115.5-264.5-30.8-309.4c84.7-44.9,155.9-58.1,155.9-58.1L5861.6,6339.8z"/>
					
						<linearGradient id="SVGID_100_" gradientUnits="userSpaceOnUse" x1="3143.4277" y1="-3541.5225" x2="3172.6807" y2="-3669.584" gradientTransform="matrix(-0.9499 0.3125 -0.3125 -0.9499 7579.7422 2359.7864)">
						<stop  offset="0" style="stop-color:#09005D"/>
						<stop  offset="1" style="stop-color:#1A0F91"/>
					</linearGradient>
					<path class="st118" d="M5769.8,6765.9l-13.2-45.5c0,0-17.4-12.8-28.5-6.5s-65.3,74.3-79.6,86.9
						C5634.2,6813.5,5682.3,6818.2,5769.8,6765.9z"/>
					
						<linearGradient id="SVGID_101_" gradientUnits="userSpaceOnUse" x1="5961.457" y1="-2128.9622" x2="5961.457" y2="-2753.7561" gradientTransform="matrix(1 0 0 -1 0 3710)">
						<stop  offset="0" style="stop-color:#09005D"/>
						<stop  offset="1" style="stop-color:#1A0F91"/>
					</linearGradient>
					<path class="st119" d="M6235.4,6090.3c-9-70.2-53-125.8-108.4-146c-16.7-6.1-30.8-17.6-40.9-32.2
						c-18.9-27.6-51.2-43.8-85.4-39.4c-0.1,0-0.2,0-0.3,0c-15.6,2.1-31.4-3.1-41.6-15.1c-30.2-35.5-118.8-62.3-164.7-56.4
						c-76.4,9.8-117.5,82-106.4,167.9s114.9,159.9,191.3,150.1c10.6-1.4,20.8-4.1,30.5-7.9c12.8-5.1,26.8,2.9,28.5,16.6
						c0,0.3,0.1,0.6,0.1,0.8c12.3,95.2,88.8,163.8,170.9,153.2C6191,6271.3,6247.7,6185.5,6235.4,6090.3z"/>
					
						<linearGradient id="SVGID_102_" gradientUnits="userSpaceOnUse" x1="-857.9523" y1="-1034.766" x2="-857.9523" y2="-1733.8085" gradientTransform="matrix(-1 0 0 -1 4953.7773 3710)">
						<stop  offset="0" style="stop-color:#FF928E"/>
						<stop  offset="1" style="stop-color:#FE7062"/>
					</linearGradient>
					<path class="st120" d="M5903.4,6098.5c0,0-80.4-41.3-202.6-3.7c0,0,15.5,219.8,22.6,263.8l199.4,8.1L5903.4,6098.5z"/>
					
						<linearGradient id="SVGID_103_" gradientUnits="userSpaceOnUse" x1="6632.3076" y1="-2491.4231" x2="6675.2207" y2="-2323.6726" gradientTransform="matrix(1 0 0 -1 -870 3710)">
						<stop  offset="0" style="stop-color:#FEBBBA"/>
						<stop  offset="1" style="stop-color:#FF928E"/>
					</linearGradient>
					<path class="st121" d="M5825.8,6016.5l7.4,73.7c0.6,5.9-3.3,11.2-9,12.6c-13.1,3-36.9,6.6-56.8-0.7c-5-1.8-8.2-6.8-7.7-12.1
						l7.3-75.7L5825.8,6016.5z"/>
					
						<linearGradient id="SVGID_104_" gradientUnits="userSpaceOnUse" x1="6431.3481" y1="-1294.6328" x2="6981.5596" y2="-923.4058" gradientTransform="matrix(0.9997 3.250000e-02 2.640000e-02 -1.0502 363.5535 3763.687)">
						<stop  offset="0" style="stop-color:#FEBBBA"/>
						<stop  offset="1" style="stop-color:#FF928E"/>
					</linearGradient>
					<path class="st122" d="M5891.5,5952.7c2.7,58.7-29.2,120.6-97.8,121.3c-47.4,0.4-69.7-40.6-72.4-99.4
						c-2.7-58.7,29.5-109.9,76.9-112.1C5845.5,5860.3,5888.8,5893.9,5891.5,5952.7z"/>
					
						<linearGradient id="SVGID_105_" gradientUnits="userSpaceOnUse" x1="6702.1851" y1="-1551.0818" x2="7252.3398" y2="-1179.8928" gradientTransform="matrix(0.993 -0.1182 -0.1182 -0.993 624.9995 3873.5066)">
						<stop  offset="0" style="stop-color:#FEBBBA"/>
						<stop  offset="1" style="stop-color:#FF928E"/>
					</linearGradient>
					<path class="st123" d="M5881.1,5978.6c0,0,4.2-34.2,20.7-22.6c16.5,11.6-9.7,51.4-20.4,53.2
						C5870.7,6010.9,5881.1,5978.6,5881.1,5978.6z"/>
					
						<linearGradient id="SVGID_106_" gradientUnits="userSpaceOnUse" x1="5805.7158" y1="-2128.9622" x2="5805.7158" y2="-2753.7571" gradientTransform="matrix(1 0 0 -1 0 3710)">
						<stop  offset="0" style="stop-color:#09005D"/>
						<stop  offset="1" style="stop-color:#1A0F91"/>
					</linearGradient>
					<path class="st124" d="M5901.7,5948.3c0,0-39.9,67.6-92.1-43.6c0,0-19.5,40.7-38.4,12.5c0,0-49.8,30-60.6,8.7
						c-10.8-21.3,54.6-99.5,127.2-69.1S5901.7,5948.3,5901.7,5948.3z"/>
					
						<linearGradient id="SVGID_107_" gradientUnits="userSpaceOnUse" x1="5677.2192" y1="-1034.7655" x2="5677.2192" y2="-1733.8075" gradientTransform="matrix(1 0 0 -1 0 3710)">
						<stop  offset="0" style="stop-color:#FF928E"/>
						<stop  offset="1" style="stop-color:#FE7062"/>
					</linearGradient>
					<path class="st125" d="M5700.4,6095l9,99.1c0,0-39.1,31.2-31.6,66.3c5.2,24.3,29.5,3.1,44-12.2c1.5-1.6,3.9-2,5.9-1
						c2,1,3.1,3.1,2.7,5.3c-3.1,17.9-9.7,44.3-21.7,49c-30.7,12-74,18.5-83.5-33.6C5613.2,6202.2,5700.4,6095,5700.4,6095z"/>
					
						<linearGradient id="SVGID_108_" gradientUnits="userSpaceOnUse" x1="-635.8419" y1="-2453.4258" x2="-604.333" y2="-2591.3652" gradientTransform="matrix(-1 0 0 -1 5133.3828 3710)">
						<stop  offset="0" style="stop-color:#FEBBBA"/>
						<stop  offset="1" style="stop-color:#FF928E"/>
					</linearGradient>
					<path class="st126" d="M5739.2,6240.2c2.7-3.5,4.6-7.7,5.5-12.1c3.2-15.9,8.7-39.6,14.3-42.7c0,0,2.1-20.4,13.9-20.8
						c0,0,8.5-3.1,8.5,28.5c0,31.6,2.3,64.4-8.5,69.2c-3.7,1.6-7.5,2.9-11,3.8c-5.3,1.4-10.5,3.5-15.5,5.9l-31.1,24.3
						C5715.3,6296.2,5707.8,6236.8,5739.2,6240.2z"/>
					
						<linearGradient id="SVGID_109_" gradientUnits="userSpaceOnUse" x1="6764.6777" y1="-1034.7645" x2="6764.6777" y2="-1733.8065" gradientTransform="matrix(1 0 0 -1 -870 3710)">
						<stop  offset="0" style="stop-color:#FF928E"/>
						<stop  offset="1" style="stop-color:#FE7062"/>
					</linearGradient>
					<path class="st127" d="M5903.4,6098.5c-22.6,15-22.5,71.7-22.5,71.7s42.6,72.7,12.5,97.4c-30.1,24.7-67.7-14.6-67.7-14.6
						c-8.8,8.2-13,20.2-11.1,32.1c1.8,11.9,9.4,22.1,20.3,27.2c38,18,91.1,30.4,120.8-18.8
						C6020.4,6186.6,5903.4,6098.5,5903.4,6098.5z"/>
					
						<linearGradient id="SVGID_110_" gradientUnits="userSpaceOnUse" x1="-678.5768" y1="-2462.9023" x2="-652.6702" y2="-2576.3159" gradientTransform="matrix(-1 0 0 -1 5133.3828 3710)">
						<stop  offset="0" style="stop-color:#FEBBBA"/>
						<stop  offset="1" style="stop-color:#FF928E"/>
					</linearGradient>
					<path class="st128" d="M5816.9,6293.4l-36.9-27.5c0,0-14.4-1.7-14.4-24.3c0-22.5,20.8-88.9,34.7-68.7s6.9,58.4,6.9,58.4
						l18.5,21.8C5825.7,6253,5812.8,6277.6,5816.9,6293.4z"/>
					
						<linearGradient id="SVGID_111_" gradientUnits="userSpaceOnUse" x1="5892.1353" y1="-2854.7478" x2="5382.8228" y2="-2720.467" gradientTransform="matrix(1 0 0 -1 0 3710)">
						<stop  offset="0" style="stop-color:#4F52FF"/>
						<stop  offset="1" style="stop-color:#4042E2"/>
					</linearGradient>
					<path class="st129" d="M5921.6,6357.4c0,0,18.8,125.7-95.9,135.7h-97.4c0,0,59.2,156.5,37.3,236.3h-65
						c0,0-115.5-263.6-30.8-308.4c84.7-44.9,155.9-58.1,155.9-58.1L5921.6,6357.4z"/>
				</g>
			</g>
			<g>
				<g>
					<g>
						
							<linearGradient id="SVGID_112_" gradientUnits="userSpaceOnUse" x1="-1270.8634" y1="-3024.5972" x2="-953.7982" y2="-3024.5972" gradientTransform="matrix(-1 0 0 -1 5155.3271 3710)">
							<stop  offset="0" style="stop-color:#9CFFFB"/>
							<stop  offset="1" style="stop-color:#9BFFFA"/>
						</linearGradient>
						<path class="st130" d="M6412.4,7102.8c1.8,0,3.7-0.4,5.4-1.2c7-3.2,10.2-11.7,7.2-19.1l-289.5-707.4
							c-3-7.4-11.1-10.8-18.1-7.6c-7,3.2-10.2,11.7-7.2,19.1l289.5,707.4C6402,7099.5,6407,7102.8,6412.4,7102.8z"/>
						
							<linearGradient id="SVGID_113_" gradientUnits="userSpaceOnUse" x1="-1234.2484" y1="-3024.5957" x2="-917.1809" y2="-3024.5957" gradientTransform="matrix(-1 0 0 -1 5155.3271 3710)">
							<stop  offset="0" style="stop-color:#9CFFFB"/>
							<stop  offset="1" style="stop-color:#9BFFFA"/>
						</linearGradient>
						<path class="st131" d="M6086.3,7102.8c5.3,0,10.4-3.3,12.7-8.8l289.5-707.4c3-7.4-0.2-15.9-7.2-19.1c-7-3.2-15.1,0.2-18.1,7.6
							l-289.5,707.4c-3,7.4,0.2,15.9,7.2,19.1C6082.6,7102.4,6084.5,7102.8,6086.3,7102.8z"/>
						
							<linearGradient id="SVGID_114_" gradientUnits="userSpaceOnUse" x1="-482.0655" y1="-3024.5972" x2="-165.0009" y2="-3024.5972" gradientTransform="matrix(-1 0 0 -1 5155.3271 3710)">
							<stop  offset="0" style="stop-color:#9CFFFB"/>
							<stop  offset="1" style="stop-color:#9BFFFA"/>
						</linearGradient>
						<path class="st132" d="M5623.6,7102.8c1.8,0,3.7-0.4,5.4-1.2c7-3.2,10.2-11.7,7.2-19.1l-289.5-707.4
							c-3-7.4-11.1-10.8-18.1-7.6c-7,3.2-10.2,11.7-7.2,19.1l289.5,707.4C5613.2,7099.5,5618.2,7102.8,5623.6,7102.8z"/>
						
							<linearGradient id="SVGID_115_" gradientUnits="userSpaceOnUse" x1="-445.4535" y1="-3024.5957" x2="-128.388" y2="-3024.5957" gradientTransform="matrix(-1 0 0 -1 5155.3271 3710)">
							<stop  offset="0" style="stop-color:#9CFFFB"/>
							<stop  offset="1" style="stop-color:#9BFFFA"/>
						</linearGradient>
						<path class="st133" d="M5297.5,7102.8c5.3,0,10.4-3.3,12.7-8.8l289.5-707.4c3-7.4-0.2-15.9-7.2-19.1c-7-3.2-15.1,0.2-18.1,7.6
							l-289.5,707.4c-3,7.4,0.2,15.9,7.2,19.1C5293.8,7102.4,5295.7,7102.8,5297.5,7102.8z"/>
					</g>
					<path class="st5" d="M5149.2,6332.6c-0.8-4.6,0.3-9.4,2.9-13.1c2.6-3.6,6.5-5.8,10.7-5.8H6559c5.4,0,10.5,3.2,13.4,8.4
						c2.9,5.2,3.3,11.8,1,17.5l-15.1,37.6c-3.5,8.6-11,14.1-19.2,14.1H5172.3c-7.7,0-14.3-6.3-15.8-14.9L5149.2,6332.6z"/>
				</g>
				<g>
					<path class="st134" d="M6572.4,6323.1l-1410.7-8.7c0,0-2.4-0.2-5.8,4.1c-10.3,13-30.3,67.1-25.7,290.7
						c4.5,218.2-14.6,381.3-25.3,453.1c-1.5,10.1,1.3,21.8,7.6,29.6s15.6,13.6,25.3,13.6h1433.9c9,0,17.6-5.2,23.9-12
						c6.3-6.8,9.7-16.7,9.4-26.2C6600.6,6916.9,6583,6346.1,6572.4,6323.1z"/>
					<g class="st135">
						<path class="st0" d="M5199.3,7084.6c-0.7,0-1.4-0.3-1.9-0.9c-0.8-1-0.6-2.3,0.5-3c0.2-0.1,22-18.5,15.2-139.6
							c-6.9-123.9,18.2-328.8,18.5-330.8c0.1-1.2,1.3-2.1,2.6-1.9c1.3,0.1,2.2,1.2,2,2.4c-0.3,2.1-25.3,206.6-18.5,330.1
							c6.9,124.9-16.1,142.6-17.1,143.3C5200.3,7084.5,5199.8,7084.6,5199.3,7084.6z"/>
					</g>
					<g class="st135">
						<path class="st0" d="M6495.3,7039.9c-1,0-1.9-0.6-2.2-1.5c-36.6-110-55.4-447-55.5-450.4c-0.1-1.2,0.9-2.2,2.2-2.3
							c1.2-0.1,2.4,0.9,2.4,2.1c0.2,3.4,18.9,339.8,55.3,449.3c0.4,1.1-0.3,2.4-1.5,2.7C6495.7,7039.9,6495.5,7039.9,6495.3,7039.9z
							"/>
					</g>
					<g class="st135">
						<path class="st0" d="M5275.6,7057.7c-0.2,0-0.4,0-0.6-0.1c-1.2-0.3-1.9-1.5-1.6-2.7c22.7-74.6,19.3-299.5,19.2-301.8
							c0-1.2,1-2.2,2.3-2.2c1.2,0,2.3,0.9,2.3,2.1c0,2.3,3.5,227.8-19.4,303.1C5277.5,7057.1,5276.6,7057.7,5275.6,7057.7z"/>
					</g>
					<g class="st135">
						<path class="st0" d="M6510.7,6983.1c-0.9,0-1.8-0.5-2.1-1.3c-12.3-27.3-31-316.9-31.8-329.2c-0.1-1.2,0.9-2.2,2.2-2.3
							c1.2-0.1,2.4,0.8,2.4,2c0.2,3,19.4,301.2,31.4,327.8c0.5,1.1,0,2.4-1.2,2.9C6511.3,6983.1,6511,6983.1,6510.7,6983.1z"/>
					</g>
				</g>
			</g>
			
				<linearGradient id="SVGID_116_" gradientUnits="userSpaceOnUse" x1="5394.7788" y1="-2590.9016" x2="5616.0464" y2="-2590.9016" gradientTransform="matrix(1 0 0 -1 0 3710)">
				<stop  offset="0" style="stop-color:#DAE3FE"/>
				<stop  offset="1" style="stop-color:#E9EFFD"/>
			</linearGradient>
			<path class="st136" d="M5615.4,6286.6c-0.7-1.1-1.9,0.1-3.2,0.1c-34,0-190.5,0-213.5,0c-1.9,0-3.5-0.4-3.8,1.5
				c-1.2,8.1,3.9,27.4,83.9,27.5c93.3,0.1,127.4-3,136.9-25.9C5616.2,6288.6,5616.1,6287.7,5615.4,6286.6z"/>
			<path class="st59" d="M6377.7,6281c-0.7-1.1-1.9-0.9-3.2-0.9c-34,0-190.5,0-213.5,0c-1.9,0-3.5,0.6-3.8,2.5
				c-1.2,8.1,3.9,27.9,84,28c93.3,0.1,127.4-3.2,136.9-26.1C6378.6,6283.2,6378.4,6282,6377.7,6281z"/>
			<path class="st59" d="M5906.5,6286.6c-0.7-1.1-1.9,0.1-3.2,0.1c-34,0-190.5,0-213.5,0c-1.9,0-3.5-0.4-3.8,1.5
				c-1.2,8.1,3.9,27.4,83.9,27.5c93.3,0.1,127.4-3,136.9-25.9C5907.3,6288.6,5907.2,6287.7,5906.5,6286.6z"/>
			
				<linearGradient id="SVGID_117_" gradientUnits="userSpaceOnUse" x1="5874.0845" y1="-2701.7703" x2="6092.3633" y2="-2147.3411" gradientTransform="matrix(1 0 0 -1 0 3710)">
				<stop  offset="0" style="stop-color:#DAE3FE"/>
				<stop  offset="1" style="stop-color:#E9EFFD"/>
			</linearGradient>
			<path class="st137" d="M6045.1,6250.1c-0.7-2.3-1.9-3.4-3.2-3.4c-34,0-190.5,0-213.5,0c-1.9,0-3.5,2.7-3.8,6.8
				c-1.2,17.5,3.9,61.2,83.9,61.4c93.3,0.3,127.4-7.3,136.9-57.1C6045.9,6255.3,6045.8,6252.4,6045.1,6250.1z"/>
			<g>
				<path class="st60" d="M5461.9,6164.6c-1-1.2-2.4-4.4-3.9-4.4h-105.6c-1.4,0-2.7,3-3.6,4s-1.4,3.6-1.4,4.9l6.5,141.5
					c0.1,2.7,2.3,6,5,6h65.4c2.3,0,4.3-2.2,4.9-4.4l33.7-141.8C5463.2,6168.9,5462.9,6165.8,5461.9,6164.6z"/>
				
					<linearGradient id="SVGID_118_" gradientUnits="userSpaceOnUse" x1="5344.2417" y1="-2312.917" x2="5376.4199" y2="-2431.644" gradientTransform="matrix(1 0 0 -1 0 3710)">
					<stop  offset="0" style="stop-color:#FF928E"/>
					<stop  offset="1" style="stop-color:#FE7062"/>
				</linearGradient>
				<path class="st138" d="M5443.9,6193.2c-1-1.2-2.4,0.2-3.9,0.2h-74.1c-1.4,0-2.7-1.6-3.6-0.6c-0.9,1-1.4,1.3-1.4,2.6l4.7,105.4
					c25.9,15,54.5-0.3,54.5-0.3l24.8-104.1C5445.2,6195.1,5444.9,6194.4,5443.9,6193.2z"/>
				<g>
					<path class="st62" d="M5363.2,6173.5c0,3.3,5.5,106.5,5.5,106.5h11.5l8-106.5H5363.2z"/>
					<polygon class="st62" points="5368.2,6286.7 5382.9,6286.7 5382.9,6296.6 5372.1,6296.3 					"/>
				</g>
			</g>
			<g>
				<path class="st60" d="M6150.4,6164.1c-0.9-1.2-2.4-3-3.8-3l-96.7,2c-1.2,0-2.3,1.7-3.1,2.7s-1.1,2.9-1,4.3l13.6,140.2
					c0.3,2.7,2.4,5,4.8,5l59.4,0c2.1,0,3.9-1.6,4.3-3.8l23.7-142.6C6151.7,6167.5,6151.3,6165.3,6150.4,6164.1z"/>
				
					<linearGradient id="SVGID_119_" gradientUnits="userSpaceOnUse" x1="6059.272" y1="-2538.4265" x2="6136.1826" y2="-2538.4265" gradientTransform="matrix(1 0 0 -1 0 3710)">
					<stop  offset="0" style="stop-color:#FF928E"/>
					<stop  offset="1" style="stop-color:#FE7062"/>
				</linearGradient>
				<path class="st139" d="M6135,6190.7c-0.9-1.2-2.3-1.1-3.7-1.1l-67.7,1.2c-1.2,0-2.4-0.1-3.2,0.9c-0.8,1-1.2,2-1.1,3.3l10,105.7
					c24.3,15,49.5-0.2,49.5-0.2l17.3-105.8C6136.4,6193.2,6136,6191.9,6135,6190.7z"/>
				<g>
					<path class="st62" d="M6060.1,6172.3c0.3,4.6,10.8,106.3,10.8,106.3l10.4-0.1l1.5-106.7L6060.1,6172.3z"/>
					<polygon class="st62" points="6070.7,6283.2 6081.5,6283.2 6082.3,6296.7 6073.6,6294.6 					"/>
				</g>
			</g>
		</g>
	</g>
</g>
</svg>
